<?xml version="1.0" encoding="UTF-8" standalone="no"?>
<!-- Created with Inkscape (http://www.inkscape.org/) -->

<svg
   xmlns:dc="http://purl.org/dc/elements/1.1/"
   xmlns:cc="http://creativecommons.org/ns#"
   xmlns:rdf="http://www.w3.org/1999/02/22-rdf-syntax-ns#"
   xmlns:svg="http://www.w3.org/2000/svg"
   xmlns="http://www.w3.org/2000/svg"
   xmlns:sodipodi="http://sodipodi.sourceforge.net/DTD/sodipodi-0.dtd"
   xmlns:inkscape="http://www.inkscape.org/namespaces/inkscape"
   width="210mm"
   height="297mm"
   viewBox="0 0 744.09448819 1052.3622047"
   id="svg6321"
   version="1.1"
   inkscape:version="0.91 r13725"
   sodipodi:docname="BN3.svg"
   inkscape:export-filename="/home/pablo/Dropbox/Curso Bayes Nets/Python Scripts/v3/files/BN2.png"
   inkscape:export-xdpi="90"
   inkscape:export-ydpi="90">
  <sodipodi:namedview
     id="base"
     pagecolor="#ffffff"
     bordercolor="#666666"
     borderopacity="1.0"
     inkscape:pageopacity="0.0"
     inkscape:pageshadow="2"
     inkscape:zoom="0.7614035"
     inkscape:cx="351.52423"
     inkscape:cy="843.16025"
     inkscape:document-units="px"
     inkscape:current-layer="layer1"
     showgrid="false"
     inkscape:window-width="1313"
     inkscape:window-height="744"
     inkscape:window-x="53"
     inkscape:window-y="24"
     inkscape:window-maximized="1" />
  <defs
     id="defs6323">
    <marker
       inkscape:stockid="Arrow1Mend"
       orient="auto"
       refY="0.0"
       refX="0.0"
       id="marker7060"
       style="overflow:visible;"
       inkscape:isstock="true">
      <path
         id="path7062"
         d="M 0.0,0.0 L 5.0,-5.0 L -12.5,0.0 L 5.0,5.0 L 0.0,0.0 z "
         style="fill-rule:evenodd;stroke:#000000;stroke-width:1pt;stroke-opacity:1;fill:#000000;fill-opacity:1"
         transform="scale(0.4) rotate(180) translate(10,0)" />
    </marker>
    <marker
       inkscape:stockid="Arrow1Mend"
       orient="auto"
       refY="0.0"
       refX="0.0"
       id="marker6972"
       style="overflow:visible;"
       inkscape:isstock="true">
      <path
         id="path6974"
         d="M 0.0,0.0 L 5.0,-5.0 L -12.5,0.0 L 5.0,5.0 L 0.0,0.0 z "
         style="fill-rule:evenodd;stroke:#000000;stroke-width:1pt;stroke-opacity:1;fill:#000000;fill-opacity:1"
         transform="scale(0.4) rotate(180) translate(10,0)" />
    </marker>
    <marker
       inkscape:stockid="Arrow1Mend"
       orient="auto"
       refY="0.0"
       refX="0.0"
       id="marker6890"
       style="overflow:visible;"
       inkscape:isstock="true">
      <path
         id="path6892"
         d="M 0.0,0.0 L 5.0,-5.0 L -12.5,0.0 L 5.0,5.0 L 0.0,0.0 z "
         style="fill-rule:evenodd;stroke:#000000;stroke-width:1pt;stroke-opacity:1;fill:#000000;fill-opacity:1"
         transform="scale(0.4) rotate(180) translate(10,0)" />
    </marker>
    <marker
       inkscape:isstock="true"
       style="overflow:visible;"
       id="marker6814"
       refX="0.0"
       refY="0.0"
       orient="auto"
       inkscape:stockid="Arrow1Mend">
      <path
         transform="scale(0.4) rotate(180) translate(10,0)"
         style="fill-rule:evenodd;stroke:#000000;stroke-width:1pt;stroke-opacity:1;fill:#000000;fill-opacity:1"
         d="M 0.0,0.0 L 5.0,-5.0 L -12.5,0.0 L 5.0,5.0 L 0.0,0.0 z "
         id="path6816" />
    </marker>
    <marker
       inkscape:isstock="true"
       style="overflow:visible;"
       id="marker6744"
       refX="0.0"
       refY="0.0"
       orient="auto"
       inkscape:stockid="Arrow1Mend">
      <path
         transform="scale(0.4) rotate(180) translate(10,0)"
         style="fill-rule:evenodd;stroke:#000000;stroke-width:1pt;stroke-opacity:1;fill:#000000;fill-opacity:1"
         d="M 0.0,0.0 L 5.0,-5.0 L -12.5,0.0 L 5.0,5.0 L 0.0,0.0 z "
         id="path6746" />
    </marker>
    <marker
       inkscape:stockid="Arrow1Mend"
       orient="auto"
       refY="0.0"
       refX="0.0"
       id="marker8027"
       style="overflow:visible;"
       inkscape:isstock="true"
       inkscape:collect="always">
      <path
         id="path8029"
         d="M 0.0,0.0 L 5.0,-5.0 L -12.5,0.0 L 5.0,5.0 L 0.0,0.0 z "
         style="fill-rule:evenodd;stroke:#000000;stroke-width:1pt;stroke-opacity:1;fill:#000000;fill-opacity:1"
         transform="scale(0.4) rotate(180) translate(10,0)" />
    </marker>
    <marker
       inkscape:isstock="true"
       style="overflow:visible;"
       id="marker7985"
       refX="0.0"
       refY="0.0"
       orient="auto"
       inkscape:stockid="Arrow1Mend"
       inkscape:collect="always">
      <path
         transform="scale(0.4) rotate(180) translate(10,0)"
         style="fill-rule:evenodd;stroke:#000000;stroke-width:1pt;stroke-opacity:1;fill:#000000;fill-opacity:1"
         d="M 0.0,0.0 L 5.0,-5.0 L -12.5,0.0 L 5.0,5.0 L 0.0,0.0 z "
         id="path7987" />
    </marker>
    <marker
       inkscape:isstock="true"
       style="overflow:visible;"
       id="marker7975"
       refX="0.0"
       refY="0.0"
       orient="auto"
       inkscape:stockid="Arrow1Mend">
      <path
         transform="scale(0.4) rotate(180) translate(10,0)"
         style="fill-rule:evenodd;stroke:#000000;stroke-width:1pt;stroke-opacity:1;fill:#000000;fill-opacity:1"
         d="M 0.0,0.0 L 5.0,-5.0 L -12.5,0.0 L 5.0,5.0 L 0.0,0.0 z "
         id="path7977" />
    </marker>
    <marker
       inkscape:stockid="Arrow1Mend"
       orient="auto"
       refY="0.0"
       refX="0.0"
       id="Arrow1Mend"
       style="overflow:visible;"
       inkscape:isstock="true"
       inkscape:collect="always">
      <path
         id="path7608"
         d="M 0.0,0.0 L 5.0,-5.0 L -12.5,0.0 L 5.0,5.0 L 0.0,0.0 z "
         style="fill-rule:evenodd;stroke:#000000;stroke-width:1pt;stroke-opacity:1;fill:#000000;fill-opacity:1"
         transform="scale(0.4) rotate(180) translate(10,0)" />
    </marker>
    <marker
       inkscape:isstock="true"
       style="overflow:visible;"
       id="marker7935"
       refX="0.0"
       refY="0.0"
       orient="auto"
       inkscape:stockid="Arrow1Lend">
      <path
         transform="scale(0.8) rotate(180) translate(12.5,0)"
         style="fill-rule:evenodd;stroke:#000000;stroke-width:1pt;stroke-opacity:1;fill:#000000;fill-opacity:1"
         d="M 0.0,0.0 L 5.0,-5.0 L -12.5,0.0 L 5.0,5.0 L 0.0,0.0 z "
         id="path7937" />
    </marker>
    <marker
       inkscape:isstock="true"
       style="overflow:visible;"
       id="marker7917"
       refX="0.0"
       refY="0.0"
       orient="auto"
       inkscape:stockid="Arrow1Lend">
      <path
         transform="scale(0.8) rotate(180) translate(12.5,0)"
         style="fill-rule:evenodd;stroke:#000000;stroke-width:1pt;stroke-opacity:1;fill:#000000;fill-opacity:1"
         d="M 0.0,0.0 L 5.0,-5.0 L -12.5,0.0 L 5.0,5.0 L 0.0,0.0 z "
         id="path7919" />
    </marker>
    <marker
       inkscape:isstock="true"
       style="overflow:visible;"
       id="marker7879"
       refX="0.0"
       refY="0.0"
       orient="auto"
       inkscape:stockid="Arrow1Lend">
      <path
         transform="scale(0.8) rotate(180) translate(12.5,0)"
         style="fill-rule:evenodd;stroke:#000000;stroke-width:1pt;stroke-opacity:1;fill:#000000;fill-opacity:1"
         d="M 0.0,0.0 L 5.0,-5.0 L -12.5,0.0 L 5.0,5.0 L 0.0,0.0 z "
         id="path7881" />
    </marker>
    <marker
       inkscape:isstock="true"
       style="overflow:visible;"
       id="marker7869"
       refX="0.0"
       refY="0.0"
       orient="auto"
       inkscape:stockid="Arrow1Lend">
      <path
         transform="scale(0.8) rotate(180) translate(12.5,0)"
         style="fill-rule:evenodd;stroke:#000000;stroke-width:1pt;stroke-opacity:1;fill:#000000;fill-opacity:1"
         d="M 0.0,0.0 L 5.0,-5.0 L -12.5,0.0 L 5.0,5.0 L 0.0,0.0 z "
         id="path7871" />
    </marker>
  </defs>
  <metadata
     id="metadata6326">
    <rdf:RDF>
      <cc:Work
         rdf:about="">
        <dc:format>image/svg+xml</dc:format>
        <dc:type
           rdf:resource="http://purl.org/dc/dcmitype/StillImage" />
        <dc:title />
      </cc:Work>
    </rdf:RDF>
  </metadata>
  <g
     inkscape:label="Layer 1"
     inkscape:groupmode="layer"
     id="layer1">
    <rect
       style="fill:#ffffff"
       id="rect7139"
       width="32.324883"
       height="32.324883"
       x="67.681877"
       y="569.25085" />
    <circle
       style="fill:#ffffff;fill-rule:evenodd;stroke:#000000;stroke-width:1px;stroke-linecap:butt;stroke-linejoin:miter;stroke-opacity:1"
       id="circle3947"
       cx="300.93817"
       cy="102.12709"
       r="17.67767" />
    <circle
       r="17.67767"
       cy="102.12709"
       cx="300.93817"
       id="circle3949"
       style="fill:#ffffff;fill-rule:evenodd;stroke:#000000;stroke-width:1px;stroke-linecap:butt;stroke-linejoin:miter;stroke-opacity:1" />
    <circle
       style="fill:#ffffff;fill-rule:evenodd;stroke:#000000;stroke-width:1px;stroke-linecap:butt;stroke-linejoin:miter;stroke-opacity:1"
       id="circle3951"
       cx="456.50165"
       cy="102.12709"
       r="17.67767" />
    <circle
       r="17.67767"
       cy="46.568684"
       cx="631.25806"
       id="circle3953"
       style="fill:#ffffff;fill-rule:evenodd;stroke:#000000;stroke-width:1px;stroke-linecap:butt;stroke-linejoin:miter;stroke-opacity:1" />
    <path
       style="fill:none;fill-rule:evenodd;stroke:#000000;stroke-width:1.63507974px;stroke-linecap:butt;stroke-linejoin:miter;stroke-opacity:1;marker-end:url(#marker7985)"
       d="m 316.59553,102.63217 121.52831,0"
       id="path3957"
       inkscape:connector-curvature="0" />
    <g
       id="g3959"
       transform="matrix(0.5938712,0,0,0.5938712,108.26416,-106.03254)">
      <g
         id="g3961"
         transform="matrix(1.0629921,0,0,-1.0629921,-186.02362,789.27165)"
         xml:space="preserve"
         stroke-miterlimit="10.433"
         font-style="normal"
         font-variant="normal"
         font-weight="normal"
         font-stretch="normal"
         font-size-adjust="none"
         letter-spacing="normal"
         word-spacing="normal"
         style="font-style:normal;font-variant:normal;font-weight:normal;font-stretch:normal;letter-spacing:normal;word-spacing:normal;text-anchor:start;fill:none;fill-opacity:1;fill-rule:evenodd;stroke:#000000;stroke-linecap:butt;stroke-linejoin:miter;stroke-miterlimit:10.43299961;stroke-dasharray:none;stroke-dashoffset:0;stroke-opacity:1"><path
           d="m 472.64,421.04 0.03,0.13 0.03,0.15 0.05,0.17 0.04,0.18 0.06,0.19 0.06,0.21 0.06,0.21 0.07,0.23 0.08,0.23 0.09,0.24 0.1,0.25 0.1,0.24 0.11,0.25 0.12,0.25 0.13,0.25 0.14,0.25 0.15,0.24 0.15,0.24 0.17,0.23 0.18,0.22 0.18,0.22 0.2,0.2 0.21,0.19 0.22,0.18 0.23,0.16 0.25,0.14 0.12,0.07 0.13,0.06 0.13,0.05 0.14,0.05 0.14,0.05 0.14,0.04 0.14,0.03 0.15,0.03 0.15,0.02 0.16,0.02 0.16,0.01 0.16,0 c 0.25,0 1.45,0 2.49,-0.65 -1.4,-0.25 -2.39,-1.49 -2.39,-2.68 0,-0.8 0.54,-1.75 1.89,-1.75 1.1,0 2.69,0.9 2.69,2.89 0,2.59 -2.94,3.29 -4.63,3.29 -2.89,0 -4.64,-2.64 -5.23,-3.79 -1.25,3.29 -3.94,3.79 -5.38,3.79 -5.18,0 -8.02,-6.43 -8.02,-7.67 0,-0.5 0.5,-0.5 0.6,-0.5 0.39,0 0.54,0.1 0.64,0.54 1.7,5.29 4.98,6.53 6.68,6.53 0.95,0 2.69,-0.45 2.69,-3.33 0,-1.55 -0.85,-4.89 -2.69,-11.86 -0.8,-3.09 -2.54,-5.18 -4.73,-5.18 -0.3,0 -1.45,0 -2.49,0.65 1.24,0.25 2.34,1.29 2.34,2.69 0,1.34 -1.1,1.74 -1.85,1.74 -1.49,0 -2.73,-1.3 -2.73,-2.89 0,-2.29 2.48,-3.29 4.68,-3.29 3.28,0 5.08,3.49 5.23,3.79 0.6,-1.85 2.39,-3.79 5.38,-3.79 5.13,0 7.97,6.43 7.97,7.67 0,0.5 -0.45,0.5 -0.6,0.5 -0.45,0 -0.55,-0.2 -0.65,-0.55 -1.64,-5.33 -5.03,-6.52 -6.62,-6.52 -1.95,0 -2.74,1.59 -2.74,3.29 0,1.09 0.29,2.19 0.85,4.38 z"
           id="path3963"
           inkscape:connector-curvature="0"
           style="fill:#000000;stroke-width:0" /><path
           d="m 495.68,421.18 0,0.04 0,0.04 0,0.04 0,0.04 0,0.04 0,0.04 0,0.03 0,0.04 -0.01,0.03 0,0.03 0,0.04 0,0.03 -0.01,0.02 0,0.03 0,0.03 -0.01,0.03 0,0.02 0,0.02 -0.02,0.05 -0.01,0.04 -0.01,0.04 -0.02,0.03 -0.02,0.03 -0.02,0.03 -0.03,0.03 -0.02,0.02 -0.03,0.02 -0.04,0.02 -0.03,0.01 -0.04,0.01 -0.05,0.02 -0.05,0 -0.02,0.01 -0.03,0 -0.03,0.01 -0.02,0 -0.03,0 -0.03,0 -0.04,0 -0.03,0.01 -0.03,0 -0.04,0 -0.03,0 -0.04,0 -0.04,0 -0.04,0 -0.04,0 -0.04,0 -0.05,0 -0.04,0 c -2.24,-2.19 -5.41,-2.23 -6.84,-2.23 l 0,-1.25 c 0.84,0 3.14,0 5.06,0.97 l 0,-17.78 c 0,-1.15 0,-1.61 -3.49,-1.61 l -1.33,0 0,-1.25 12.45,0 0,1.25 -1.32,0 c -3.49,0 -3.49,0.46 -3.49,1.61 z"
           id="path3965"
           inkscape:connector-curvature="0"
           style="fill:#000000;stroke-width:0" /></g>    </g>
    <g
       id="g3967"
       transform="matrix(0.5938712,0,0,0.5938712,263.1213,-105.31826)">
      <g
         word-spacing="normal"
         letter-spacing="normal"
         font-size-adjust="none"
         font-stretch="normal"
         font-weight="normal"
         font-variant="normal"
         font-style="normal"
         stroke-miterlimit="10.433"
         xml:space="preserve"
         transform="matrix(1.0629921,0,0,-1.0629921,-186.02362,789.27165)"
         id="g3969"
         style="font-style:normal;font-variant:normal;font-weight:normal;font-stretch:normal;letter-spacing:normal;word-spacing:normal;text-anchor:start;fill:none;fill-opacity:1;fill-rule:evenodd;stroke:#000000;stroke-linecap:butt;stroke-linejoin:miter;stroke-miterlimit:10.43299961;stroke-dasharray:none;stroke-dashoffset:0;stroke-opacity:1"><path
           id="path3971"
           d="m 472.64,421.04 0.03,0.13 0.03,0.15 0.05,0.17 0.04,0.18 0.06,0.19 0.06,0.21 0.06,0.21 0.07,0.23 0.08,0.23 0.09,0.24 0.1,0.25 0.1,0.24 0.11,0.25 0.12,0.25 0.13,0.25 0.14,0.25 0.15,0.24 0.15,0.24 0.17,0.23 0.18,0.22 0.18,0.22 0.2,0.2 0.21,0.19 0.22,0.18 0.23,0.16 0.25,0.14 0.12,0.07 0.13,0.06 0.13,0.05 0.14,0.05 0.14,0.05 0.14,0.04 0.14,0.03 0.15,0.03 0.15,0.02 0.16,0.02 0.16,0.01 0.16,0 c 0.25,0 1.45,0 2.49,-0.65 -1.4,-0.25 -2.39,-1.49 -2.39,-2.68 0,-0.8 0.54,-1.75 1.89,-1.75 1.1,0 2.69,0.9 2.69,2.89 0,2.59 -2.94,3.29 -4.63,3.29 -2.89,0 -4.64,-2.64 -5.23,-3.79 -1.25,3.29 -3.94,3.79 -5.38,3.79 -5.18,0 -8.02,-6.43 -8.02,-7.67 0,-0.5 0.5,-0.5 0.6,-0.5 0.39,0 0.54,0.1 0.64,0.54 1.7,5.29 4.98,6.53 6.68,6.53 0.95,0 2.69,-0.45 2.69,-3.33 0,-1.55 -0.85,-4.89 -2.69,-11.86 -0.8,-3.09 -2.54,-5.18 -4.73,-5.18 -0.3,0 -1.45,0 -2.49,0.65 1.24,0.25 2.34,1.29 2.34,2.69 0,1.34 -1.1,1.74 -1.85,1.74 -1.49,0 -2.73,-1.3 -2.73,-2.89 0,-2.29 2.48,-3.29 4.68,-3.29 3.28,0 5.08,3.49 5.23,3.79 0.6,-1.85 2.39,-3.79 5.38,-3.79 5.13,0 7.97,6.43 7.97,7.67 0,0.5 -0.45,0.5 -0.6,0.5 -0.45,0 -0.55,-0.2 -0.65,-0.55 -1.64,-5.33 -5.03,-6.52 -6.62,-6.52 -1.95,0 -2.74,1.59 -2.74,3.29 0,1.09 0.29,2.19 0.85,4.38 z"
           inkscape:connector-curvature="0"
           style="fill:#000000;stroke-width:0" /><path
           id="path3973"
           d="m 501.61,405.35 -1.19,0 c -0.1,-0.77 -0.45,-2.83 -0.9,-3.18 -0.28,-0.21 -2.97,-0.21 -3.45,-0.21 l -6.42,0 c 3.66,3.25 4.88,4.22 6.97,5.86 2.58,2.06 4.99,4.22 4.99,7.54 0,4.21 -3.7,6.79 -8.16,6.79 -4.33,0 -7.25,-3.03 -7.25,-6.24 0,-1.78 1.5,-1.95 1.84,-1.95 0.84,0 1.85,0.59 1.85,1.85 0,0.62 -0.24,1.85 -2.05,1.85 1.08,2.47 3.45,3.24 5.09,3.24 3.48,0 5.3,-2.72 5.3,-5.54 0,-3.04 -2.16,-5.45 -3.28,-6.7 l -8.4,-8.3 c -0.35,-0.31 -0.35,-0.38 -0.35,-1.36 l 14.36,0 z"
           inkscape:connector-curvature="0"
           style="fill:#000000;stroke-width:0" /></g>    </g>
    <g
       id="g3975"
       transform="matrix(0.5938712,0,0,0.5938712,438.83559,-161.03254)">
      <g
         id="g3977"
         transform="matrix(1.0629921,0,0,-1.0629921,-186.02362,789.27165)"
         xml:space="preserve"
         stroke-miterlimit="10.433"
         font-style="normal"
         font-variant="normal"
         font-weight="normal"
         font-stretch="normal"
         font-size-adjust="none"
         letter-spacing="normal"
         word-spacing="normal"
         style="font-style:normal;font-variant:normal;font-weight:normal;font-stretch:normal;letter-spacing:normal;word-spacing:normal;text-anchor:start;fill:none;fill-opacity:1;fill-rule:evenodd;stroke:#000000;stroke-linecap:butt;stroke-linejoin:miter;stroke-miterlimit:10.43299961;stroke-dasharray:none;stroke-dashoffset:0;stroke-opacity:1"><path
           d="m 472.64,421.04 0.03,0.13 0.03,0.15 0.05,0.17 0.04,0.18 0.06,0.19 0.06,0.21 0.06,0.21 0.07,0.23 0.08,0.23 0.09,0.24 0.1,0.25 0.1,0.24 0.11,0.25 0.12,0.25 0.13,0.25 0.14,0.25 0.15,0.24 0.15,0.24 0.17,0.23 0.18,0.22 0.18,0.22 0.2,0.2 0.21,0.19 0.22,0.18 0.23,0.16 0.25,0.14 0.12,0.07 0.13,0.06 0.13,0.05 0.14,0.05 0.14,0.05 0.14,0.04 0.14,0.03 0.15,0.03 0.15,0.02 0.16,0.02 0.16,0.01 0.16,0 c 0.25,0 1.45,0 2.49,-0.65 -1.4,-0.25 -2.39,-1.49 -2.39,-2.68 0,-0.8 0.54,-1.75 1.89,-1.75 1.1,0 2.69,0.9 2.69,2.89 0,2.59 -2.94,3.29 -4.63,3.29 -2.89,0 -4.64,-2.64 -5.23,-3.79 -1.25,3.29 -3.94,3.79 -5.38,3.79 -5.18,0 -8.02,-6.43 -8.02,-7.67 0,-0.5 0.5,-0.5 0.6,-0.5 0.39,0 0.54,0.1 0.64,0.54 1.7,5.29 4.98,6.53 6.68,6.53 0.95,0 2.69,-0.45 2.69,-3.33 0,-1.55 -0.85,-4.89 -2.69,-11.86 -0.8,-3.09 -2.54,-5.18 -4.73,-5.18 -0.3,0 -1.45,0 -2.49,0.65 1.24,0.25 2.34,1.29 2.34,2.69 0,1.34 -1.1,1.74 -1.85,1.74 -1.49,0 -2.73,-1.3 -2.73,-2.89 0,-2.29 2.48,-3.29 4.68,-3.29 3.28,0 5.08,3.49 5.23,3.79 0.6,-1.85 2.39,-3.79 5.38,-3.79 5.13,0 7.97,6.43 7.97,7.67 0,0.5 -0.45,0.5 -0.6,0.5 -0.45,0 -0.55,-0.2 -0.65,-0.55 -1.64,-5.33 -5.03,-6.52 -6.62,-6.52 -1.95,0 -2.74,1.59 -2.74,3.29 0,1.09 0.29,2.19 0.85,4.38 z"
           id="path3979"
           inkscape:connector-curvature="0"
           style="fill:#000000;stroke-width:0" /><path
           d="m 493.52,410.64 0.25,0 0.25,-0.02 0.24,-0.02 0.24,-0.04 0.23,-0.05 0.23,-0.06 0.22,-0.07 0.22,-0.09 0.21,-0.09 0.2,-0.11 0.19,-0.11 0.19,-0.13 0.18,-0.13 0.18,-0.15 0.17,-0.16 0.15,-0.17 0.16,-0.18 0.14,-0.2 0.13,-0.2 0.13,-0.21 0.12,-0.23 0.11,-0.23 0.09,-0.25 0.09,-0.26 0.08,-0.27 0.07,-0.28 0.06,-0.29 0.05,-0.3 0.04,-0.31 0.03,-0.32 0.02,-0.33 0,-0.35 c 0,-4.32 -2.51,-5.61 -4.53,-5.61 -1.39,0 -4.46,0.38 -5.93,2.44 1.64,0.07 2.02,1.22 2.02,1.95 0,1.12 -0.83,1.92 -1.91,1.92 -0.98,0 -1.96,-0.59 -1.96,-2.02 0,-3.28 3.63,-5.41 7.85,-5.41 4.84,0 8.19,3.25 8.19,6.73 0,2.72 -2.23,5.44 -6.06,6.24 3.66,1.33 4.98,3.94 4.98,6.07 0,2.76 -3.17,4.81 -7.04,4.81 -3.87,0 -6.84,-1.88 -6.84,-4.67 0,-1.18 0.77,-1.85 1.82,-1.85 1.08,0 1.77,0.8 1.77,1.78 0,1.01 -0.69,1.75 -1.77,1.81 1.22,1.54 3.62,1.92 4.92,1.92 1.56,0 3.76,-0.76 3.76,-3.8 0,-1.46 -0.49,-3.07 -1.39,-4.15 -1.16,-1.32 -2.13,-1.39 -3.87,-1.5 -0.88,-0.07 -0.95,-0.07 -1.12,-0.1 -0.07,0 -0.35,-0.07 -0.35,-0.46 0,-0.49 0.31,-0.49 0.91,-0.49 z"
           id="path3981"
           inkscape:connector-curvature="0"
           style="fill:#000000;stroke-width:0" /></g>    </g>
    <circle
       r="17.67767"
       cy="102.12709"
       cx="300.93817"
       id="circle3991"
       style="fill:#ffffff;fill-rule:evenodd;stroke:#000000;stroke-width:1px;stroke-linecap:butt;stroke-linejoin:miter;stroke-opacity:1" />
    <circle
       style="fill:#ffffff;fill-rule:evenodd;stroke:#000000;stroke-width:1px;stroke-linecap:butt;stroke-linejoin:miter;stroke-opacity:1"
       id="circle3993"
       cx="300.93817"
       cy="102.12709"
       r="17.67767" />
    <circle
       r="17.67767"
       cy="102.12709"
       cx="456.50165"
       id="circle3995"
       style="fill:#ffffff;fill-rule:evenodd;stroke:#000000;stroke-width:1px;stroke-linecap:butt;stroke-linejoin:miter;stroke-opacity:1" />
    <circle
       style="fill:#ffffff;fill-rule:evenodd;stroke:#000000;stroke-width:1px;stroke-linecap:butt;stroke-linejoin:miter;stroke-opacity:1"
       id="circle3997"
       cx="631.25806"
       cy="46.568684"
       r="17.67767" />
    <g
       transform="matrix(0.5938712,0,0,0.5938712,108.26416,-106.03254)"
       id="g3999">
      <g
         style="font-style:normal;font-variant:normal;font-weight:normal;font-stretch:normal;letter-spacing:normal;word-spacing:normal;text-anchor:start;fill:none;fill-opacity:1;fill-rule:evenodd;stroke:#000000;stroke-linecap:butt;stroke-linejoin:miter;stroke-miterlimit:10.43299961;stroke-dasharray:none;stroke-dashoffset:0;stroke-opacity:1"
         word-spacing="normal"
         letter-spacing="normal"
         font-size-adjust="none"
         font-stretch="normal"
         font-weight="normal"
         font-variant="normal"
         font-style="normal"
         stroke-miterlimit="10.433"
         xml:space="preserve"
         transform="matrix(1.0629921,0,0,-1.0629921,-186.02362,789.27165)"
         id="g4001"><path
           style="fill:#000000;stroke-width:0"
           inkscape:connector-curvature="0"
           id="path4003"
           d="m 472.64,421.04 0.03,0.13 0.03,0.15 0.05,0.17 0.04,0.18 0.06,0.19 0.06,0.21 0.06,0.21 0.07,0.23 0.08,0.23 0.09,0.24 0.1,0.25 0.1,0.24 0.11,0.25 0.12,0.25 0.13,0.25 0.14,0.25 0.15,0.24 0.15,0.24 0.17,0.23 0.18,0.22 0.18,0.22 0.2,0.2 0.21,0.19 0.22,0.18 0.23,0.16 0.25,0.14 0.12,0.07 0.13,0.06 0.13,0.05 0.14,0.05 0.14,0.05 0.14,0.04 0.14,0.03 0.15,0.03 0.15,0.02 0.16,0.02 0.16,0.01 0.16,0 c 0.25,0 1.45,0 2.49,-0.65 -1.4,-0.25 -2.39,-1.49 -2.39,-2.68 0,-0.8 0.54,-1.75 1.89,-1.75 1.1,0 2.69,0.9 2.69,2.89 0,2.59 -2.94,3.29 -4.63,3.29 -2.89,0 -4.64,-2.64 -5.23,-3.79 -1.25,3.29 -3.94,3.79 -5.38,3.79 -5.18,0 -8.02,-6.43 -8.02,-7.67 0,-0.5 0.5,-0.5 0.6,-0.5 0.39,0 0.54,0.1 0.64,0.54 1.7,5.29 4.98,6.53 6.68,6.53 0.95,0 2.69,-0.45 2.69,-3.33 0,-1.55 -0.85,-4.89 -2.69,-11.86 -0.8,-3.09 -2.54,-5.18 -4.73,-5.18 -0.3,0 -1.45,0 -2.49,0.65 1.24,0.25 2.34,1.29 2.34,2.69 0,1.34 -1.1,1.74 -1.85,1.74 -1.49,0 -2.73,-1.3 -2.73,-2.89 0,-2.29 2.48,-3.29 4.68,-3.29 3.28,0 5.08,3.49 5.23,3.79 0.6,-1.85 2.39,-3.79 5.38,-3.79 5.13,0 7.97,6.43 7.97,7.67 0,0.5 -0.45,0.5 -0.6,0.5 -0.45,0 -0.55,-0.2 -0.65,-0.55 -1.64,-5.33 -5.03,-6.52 -6.62,-6.52 -1.95,0 -2.74,1.59 -2.74,3.29 0,1.09 0.29,2.19 0.85,4.38 z" /><path
           style="fill:#000000;stroke-width:0"
           inkscape:connector-curvature="0"
           id="path4005"
           d="m 495.68,421.18 0,0.04 0,0.04 0,0.04 0,0.04 0,0.04 0,0.04 0,0.03 0,0.04 -0.01,0.03 0,0.03 0,0.04 0,0.03 -0.01,0.02 0,0.03 0,0.03 -0.01,0.03 0,0.02 0,0.02 -0.02,0.05 -0.01,0.04 -0.01,0.04 -0.02,0.03 -0.02,0.03 -0.02,0.03 -0.03,0.03 -0.02,0.02 -0.03,0.02 -0.04,0.02 -0.03,0.01 -0.04,0.01 -0.05,0.02 -0.05,0 -0.02,0.01 -0.03,0 -0.03,0.01 -0.02,0 -0.03,0 -0.03,0 -0.04,0 -0.03,0.01 -0.03,0 -0.04,0 -0.03,0 -0.04,0 -0.04,0 -0.04,0 -0.04,0 -0.04,0 -0.05,0 -0.04,0 c -2.24,-2.19 -5.41,-2.23 -6.84,-2.23 l 0,-1.25 c 0.84,0 3.14,0 5.06,0.97 l 0,-17.78 c 0,-1.15 0,-1.61 -3.49,-1.61 l -1.33,0 0,-1.25 12.45,0 0,1.25 -1.32,0 c -3.49,0 -3.49,0.46 -3.49,1.61 z" /></g>    </g>
    <g
       transform="matrix(0.5938712,0,0,0.5938712,263.1213,-105.31826)"
       id="g4007">
      <g
         style="font-style:normal;font-variant:normal;font-weight:normal;font-stretch:normal;letter-spacing:normal;word-spacing:normal;text-anchor:start;fill:none;fill-opacity:1;fill-rule:evenodd;stroke:#000000;stroke-linecap:butt;stroke-linejoin:miter;stroke-miterlimit:10.43299961;stroke-dasharray:none;stroke-dashoffset:0;stroke-opacity:1"
         id="g4009"
         transform="matrix(1.0629921,0,0,-1.0629921,-186.02362,789.27165)"
         xml:space="preserve"
         stroke-miterlimit="10.433"
         font-style="normal"
         font-variant="normal"
         font-weight="normal"
         font-stretch="normal"
         font-size-adjust="none"
         letter-spacing="normal"
         word-spacing="normal"><path
           style="fill:#000000;stroke-width:0"
           inkscape:connector-curvature="0"
           d="m 472.64,421.04 0.03,0.13 0.03,0.15 0.05,0.17 0.04,0.18 0.06,0.19 0.06,0.21 0.06,0.21 0.07,0.23 0.08,0.23 0.09,0.24 0.1,0.25 0.1,0.24 0.11,0.25 0.12,0.25 0.13,0.25 0.14,0.25 0.15,0.24 0.15,0.24 0.17,0.23 0.18,0.22 0.18,0.22 0.2,0.2 0.21,0.19 0.22,0.18 0.23,0.16 0.25,0.14 0.12,0.07 0.13,0.06 0.13,0.05 0.14,0.05 0.14,0.05 0.14,0.04 0.14,0.03 0.15,0.03 0.15,0.02 0.16,0.02 0.16,0.01 0.16,0 c 0.25,0 1.45,0 2.49,-0.65 -1.4,-0.25 -2.39,-1.49 -2.39,-2.68 0,-0.8 0.54,-1.75 1.89,-1.75 1.1,0 2.69,0.9 2.69,2.89 0,2.59 -2.94,3.29 -4.63,3.29 -2.89,0 -4.64,-2.64 -5.23,-3.79 -1.25,3.29 -3.94,3.79 -5.38,3.79 -5.18,0 -8.02,-6.43 -8.02,-7.67 0,-0.5 0.5,-0.5 0.6,-0.5 0.39,0 0.54,0.1 0.64,0.54 1.7,5.29 4.98,6.53 6.68,6.53 0.95,0 2.69,-0.45 2.69,-3.33 0,-1.55 -0.85,-4.89 -2.69,-11.86 -0.8,-3.09 -2.54,-5.18 -4.73,-5.18 -0.3,0 -1.45,0 -2.49,0.65 1.24,0.25 2.34,1.29 2.34,2.69 0,1.34 -1.1,1.74 -1.85,1.74 -1.49,0 -2.73,-1.3 -2.73,-2.89 0,-2.29 2.48,-3.29 4.68,-3.29 3.28,0 5.08,3.49 5.23,3.79 0.6,-1.85 2.39,-3.79 5.38,-3.79 5.13,0 7.97,6.43 7.97,7.67 0,0.5 -0.45,0.5 -0.6,0.5 -0.45,0 -0.55,-0.2 -0.65,-0.55 -1.64,-5.33 -5.03,-6.52 -6.62,-6.52 -1.95,0 -2.74,1.59 -2.74,3.29 0,1.09 0.29,2.19 0.85,4.38 z"
           id="path4011" /><path
           style="fill:#000000;stroke-width:0"
           inkscape:connector-curvature="0"
           d="m 501.61,405.35 -1.19,0 c -0.1,-0.77 -0.45,-2.83 -0.9,-3.18 -0.28,-0.21 -2.97,-0.21 -3.45,-0.21 l -6.42,0 c 3.66,3.25 4.88,4.22 6.97,5.86 2.58,2.06 4.99,4.22 4.99,7.54 0,4.21 -3.7,6.79 -8.16,6.79 -4.33,0 -7.25,-3.03 -7.25,-6.24 0,-1.78 1.5,-1.95 1.84,-1.95 0.84,0 1.85,0.59 1.85,1.85 0,0.62 -0.24,1.85 -2.05,1.85 1.08,2.47 3.45,3.24 5.09,3.24 3.48,0 5.3,-2.72 5.3,-5.54 0,-3.04 -2.16,-5.45 -3.28,-6.7 l -8.4,-8.3 c -0.35,-0.31 -0.35,-0.38 -0.35,-1.36 l 14.36,0 z"
           id="path4013" /></g>    </g>
    <path
       sodipodi:nodetypes="cc"
       inkscape:connector-curvature="0"
       id="path4031"
       d="M 471.14888,90.510341 611.61712,45.658238"
       style="fill:none;fill-rule:evenodd;stroke:#000000;stroke-width:1.66871119px;stroke-linecap:butt;stroke-linejoin:miter;stroke-opacity:1;marker-end:url(#Arrow1Mend)" />
    <path
       sodipodi:nodetypes="cc"
       inkscape:connector-curvature="0"
       id="path4035"
       d="M 199.98422,87.773151 612.69527,42.171337"
       style="fill:none;fill-rule:evenodd;stroke:#000000;stroke-width:1.63507974px;stroke-linecap:butt;stroke-linejoin:miter;stroke-opacity:1;marker-end:url(#marker8027)" />
    <circle
       r="17.67767"
       cy="100.81373"
       cx="188.82297"
       id="circle4037"
       style="fill:#ffffff;fill-rule:evenodd;stroke:#000000;stroke-width:1px;stroke-linecap:butt;stroke-linejoin:miter;stroke-opacity:1" />
    <circle
       style="fill:#ffffff;fill-rule:evenodd;stroke:#000000;stroke-width:1px;stroke-linecap:butt;stroke-linejoin:miter;stroke-opacity:1"
       id="circle4039"
       cx="188.82297"
       cy="100.81373"
       r="17.67767" />
    <g
       transform="matrix(0.5938712,0,0,0.5938712,-3.85105,-107.3459)"
       id="g4041">
      <g
         style="font-style:normal;font-variant:normal;font-weight:normal;font-stretch:normal;letter-spacing:normal;word-spacing:normal;text-anchor:start;fill:none;fill-opacity:1;fill-rule:evenodd;stroke:#000000;stroke-linecap:butt;stroke-linejoin:miter;stroke-miterlimit:10.43299961;stroke-dasharray:none;stroke-dashoffset:0;stroke-opacity:1"
         word-spacing="normal"
         letter-spacing="normal"
         font-size-adjust="none"
         font-stretch="normal"
         font-weight="normal"
         font-variant="normal"
         font-style="normal"
         stroke-miterlimit="10.433"
         xml:space="preserve"
         transform="matrix(1.0629921,0,0,-1.0629921,-186.02362,789.27165)"
         id="g4043"><path
           style="fill:#000000;stroke-width:0"
           inkscape:connector-curvature="0"
           id="path4045"
           d="m 472.64,421.04 0.03,0.13 0.03,0.15 0.05,0.17 0.04,0.18 0.06,0.19 0.06,0.21 0.06,0.21 0.07,0.23 0.08,0.23 0.09,0.24 0.1,0.25 0.1,0.24 0.11,0.25 0.12,0.25 0.13,0.25 0.14,0.25 0.15,0.24 0.15,0.24 0.17,0.23 0.18,0.22 0.18,0.22 0.2,0.2 0.21,0.19 0.22,0.18 0.23,0.16 0.25,0.14 0.12,0.07 0.13,0.06 0.13,0.05 0.14,0.05 0.14,0.05 0.14,0.04 0.14,0.03 0.15,0.03 0.15,0.02 0.16,0.02 0.16,0.01 0.16,0 c 0.25,0 1.45,0 2.49,-0.65 -1.4,-0.25 -2.39,-1.49 -2.39,-2.68 0,-0.8 0.54,-1.75 1.89,-1.75 1.1,0 2.69,0.9 2.69,2.89 0,2.59 -2.94,3.29 -4.63,3.29 -2.89,0 -4.64,-2.64 -5.23,-3.79 -1.25,3.29 -3.94,3.79 -5.38,3.79 -5.18,0 -8.02,-6.43 -8.02,-7.67 0,-0.5 0.5,-0.5 0.6,-0.5 0.39,0 0.54,0.1 0.64,0.54 1.7,5.29 4.98,6.53 6.68,6.53 0.95,0 2.69,-0.45 2.69,-3.33 0,-1.55 -0.85,-4.89 -2.69,-11.86 -0.8,-3.09 -2.54,-5.18 -4.73,-5.18 -0.3,0 -1.45,0 -2.49,0.65 1.24,0.25 2.34,1.29 2.34,2.69 0,1.34 -1.1,1.74 -1.85,1.74 -1.49,0 -2.73,-1.3 -2.73,-2.89 0,-2.29 2.48,-3.29 4.68,-3.29 3.28,0 5.08,3.49 5.23,3.79 0.6,-1.85 2.39,-3.79 5.38,-3.79 5.13,0 7.97,6.43 7.97,7.67 0,0.5 -0.45,0.5 -0.6,0.5 -0.45,0 -0.55,-0.2 -0.65,-0.55 -1.64,-5.33 -5.03,-6.52 -6.62,-6.52 -1.95,0 -2.74,1.59 -2.74,3.29 0,1.09 0.29,2.19 0.85,4.38 z" /><path
           style="fill:#000000;stroke-width:0"
           inkscape:connector-curvature="0"
           id="path4047"
           d="m 495.68,421.18 0,0.04 0,0.04 0,0.04 0,0.04 0,0.04 0,0.04 0,0.03 0,0.04 -0.01,0.03 0,0.03 0,0.04 0,0.03 -0.01,0.02 0,0.03 0,0.03 -0.01,0.03 0,0.02 0,0.02 -0.02,0.05 -0.01,0.04 -0.01,0.04 -0.02,0.03 -0.02,0.03 -0.02,0.03 -0.03,0.03 -0.02,0.02 -0.03,0.02 -0.04,0.02 -0.03,0.01 -0.04,0.01 -0.05,0.02 -0.05,0 -0.02,0.01 -0.03,0 -0.03,0.01 -0.02,0 -0.03,0 -0.03,0 -0.04,0 -0.03,0.01 -0.03,0 -0.04,0 -0.03,0 -0.04,0 -0.04,0 -0.04,0 -0.04,0 -0.04,0 -0.05,0 -0.04,0 c -2.24,-2.19 -5.41,-2.23 -6.84,-2.23 l 0,-1.25 c 0.84,0 3.14,0 5.06,0.97 l 0,-17.78 c 0,-1.15 0,-1.61 -3.49,-1.61 l -1.33,0 0,-1.25 12.45,0 0,1.25 -1.32,0 c -3.49,0 -3.49,0.46 -3.49,1.61 z" /></g>    </g>
    <circle
       style="fill:#ffffff;fill-rule:evenodd;stroke:#000000;stroke-width:1px;stroke-linecap:butt;stroke-linejoin:miter;stroke-opacity:1"
       id="circle4049"
       cx="188.82297"
       cy="100.81373"
       r="17.67767" />
    <circle
       r="17.67767"
       cy="100.81373"
       cx="188.82297"
       id="circle4051"
       style="fill:#ffffff;fill-rule:evenodd;stroke:#000000;stroke-width:1px;stroke-linecap:butt;stroke-linejoin:miter;stroke-opacity:1" />
    <g
       id="g4053"
       transform="matrix(0.5938712,0,0,0.5938712,26.148948,-107.3459)">
      <g
         id="g4245"
         transform="translate(-49.831266,1.4089862)">
        <g
           id="g4247"
           transform="matrix(1.0629921,0,0,-1.0629921,-186.02362,789.27165)"
           xml:space="preserve"
           stroke-miterlimit="10.433"
           font-style="normal"
           font-variant="normal"
           font-weight="normal"
           font-stretch="normal"
           font-size-adjust="none"
           letter-spacing="normal"
           word-spacing="normal"
           style="font-style:normal;font-variant:normal;font-weight:normal;font-stretch:normal;letter-spacing:normal;word-spacing:normal;text-anchor:start;fill:none;fill-opacity:1;fill-rule:evenodd;stroke:#000000;stroke-linecap:butt;stroke-linejoin:miter;stroke-miterlimit:10.43299961;stroke-dasharray:none;stroke-dashoffset:0;stroke-opacity:1"><path
             d="m 472.64,421.04 0.03,0.13 0.03,0.15 0.05,0.17 0.04,0.18 0.06,0.19 0.06,0.21 0.06,0.21 0.07,0.23 0.08,0.23 0.09,0.24 0.1,0.25 0.1,0.24 0.11,0.25 0.12,0.25 0.13,0.25 0.14,0.25 0.15,0.24 0.15,0.24 0.17,0.23 0.18,0.22 0.18,0.22 0.2,0.2 0.21,0.19 0.22,0.18 0.23,0.16 0.25,0.14 0.12,0.07 0.13,0.06 0.13,0.05 0.14,0.05 0.14,0.05 0.14,0.04 0.14,0.03 0.15,0.03 0.15,0.02 0.16,0.02 0.16,0.01 0.16,0 c 0.25,0 1.45,0 2.49,-0.65 -1.4,-0.25 -2.39,-1.49 -2.39,-2.68 0,-0.8 0.54,-1.75 1.89,-1.75 1.1,0 2.69,0.9 2.69,2.89 0,2.59 -2.94,3.29 -4.63,3.29 -2.89,0 -4.64,-2.64 -5.23,-3.79 -1.25,3.29 -3.94,3.79 -5.38,3.79 -5.18,0 -8.02,-6.43 -8.02,-7.67 0,-0.5 0.5,-0.5 0.6,-0.5 0.39,0 0.54,0.1 0.64,0.54 1.7,5.29 4.98,6.53 6.68,6.53 0.95,0 2.69,-0.45 2.69,-3.33 0,-1.55 -0.85,-4.89 -2.69,-11.86 -0.8,-3.09 -2.54,-5.18 -4.73,-5.18 -0.3,0 -1.45,0 -2.49,0.65 1.24,0.25 2.34,1.29 2.34,2.69 0,1.34 -1.1,1.74 -1.85,1.74 -1.49,0 -2.73,-1.3 -2.73,-2.89 0,-2.29 2.48,-3.29 4.68,-3.29 3.28,0 5.08,3.49 5.23,3.79 0.6,-1.85 2.39,-3.79 5.38,-3.79 5.13,0 7.97,6.43 7.97,7.67 0,0.5 -0.45,0.5 -0.6,0.5 -0.45,0 -0.55,-0.2 -0.65,-0.55 -1.64,-5.33 -5.03,-6.52 -6.62,-6.52 -1.95,0 -2.74,1.59 -2.74,3.29 0,1.09 0.29,2.19 0.85,4.38 z"
             id="path4249"
             inkscape:connector-curvature="0"
             style="fill:#000000;stroke-width:0" /><path
             d="m 501.99,410.12 0,0.71 -0.02,0.68 -0.03,0.66 -0.04,0.64 -0.06,0.62 -0.08,0.59 -0.09,0.58 -0.11,0.56 -0.12,0.55 -0.15,0.53 -0.17,0.51 -0.19,0.5 -0.21,0.49 -0.24,0.48 -0.26,0.47 -0.14,0.24 -0.15,0.23 c -1.07,1.6 -3.24,2.99 -6.03,2.99 l 0,-0.97 c 1.89,0 3.7,-1.15 4.33,-3.18 0.56,-1.88 0.59,-4.39 0.59,-7.42 0,-2.58 0,-5.17 -0.45,-7.36 -0.7,-3.17 -3.07,-3.94 -4.47,-3.94 l 0,0 c -1.6,0 -3.73,0.94 -4.43,3.8 -0.49,2.06 -0.49,4.92 -0.49,7.5 0,2.54 0,5.19 0.53,7.11 0.73,2.76 2.96,3.49 4.39,3.49 l 0,0.97 c -8.09,0 -8.09,-9.52 -8.09,-12.03 0,-2.51 0,-11.82 8.09,-11.82 8.09,0 8.09,9.31 8.09,11.82 z"
             id="path4251"
             inkscape:connector-curvature="0"
             style="fill:#000000;stroke-width:0" /></g>      </g>
    </g>
    <path
       sodipodi:nodetypes="cc"
       inkscape:connector-curvature="0"
       id="path4463"
       d="m 206.27295,102.63217 74.87393,0"
       style="fill:none;fill-rule:evenodd;stroke:#000000;stroke-width:1.63507974px;stroke-linecap:butt;stroke-linejoin:miter;stroke-opacity:1;marker-end:url(#marker7985)" />
    <g
       id="g4651"
       transform="matrix(0.63904601,0,0,0.63904601,424.06483,-176.81606)">
      <g
         word-spacing="normal"
         letter-spacing="normal"
         font-size-adjust="none"
         font-stretch="normal"
         font-weight="normal"
         font-variant="normal"
         font-style="normal"
         stroke-miterlimit="10.433"
         xml:space="preserve"
         transform="matrix(1.0629921,0,0,-1.0629921,-186.02362,789.27165)"
         id="g4653"
         style="font-style:normal;font-variant:normal;font-weight:normal;font-stretch:normal;letter-spacing:normal;word-spacing:normal;text-anchor:start;fill:none;fill-opacity:1;fill-rule:evenodd;stroke:#000000;stroke-linecap:butt;stroke-linejoin:miter;stroke-miterlimit:10.43299961;stroke-dasharray:none;stroke-dashoffset:0;stroke-opacity:1"><path
           id="path4655"
           d="m 472.64,421.04 0.03,0.13 0.03,0.15 0.05,0.17 0.04,0.18 0.06,0.19 0.06,0.21 0.06,0.21 0.07,0.23 0.08,0.23 0.09,0.24 0.1,0.25 0.1,0.24 0.11,0.25 0.12,0.25 0.13,0.25 0.14,0.25 0.15,0.24 0.15,0.24 0.17,0.23 0.18,0.22 0.18,0.22 0.2,0.2 0.21,0.19 0.22,0.18 0.23,0.16 0.25,0.14 0.12,0.07 0.13,0.06 0.13,0.05 0.14,0.05 0.14,0.05 0.14,0.04 0.14,0.03 0.15,0.03 0.15,0.02 0.16,0.02 0.16,0.01 0.16,0 c 0.25,0 1.45,0 2.49,-0.65 -1.4,-0.25 -2.39,-1.49 -2.39,-2.68 0,-0.8 0.54,-1.75 1.89,-1.75 1.1,0 2.69,0.9 2.69,2.89 0,2.59 -2.94,3.29 -4.63,3.29 -2.89,0 -4.64,-2.64 -5.23,-3.79 -1.25,3.29 -3.94,3.79 -5.38,3.79 -5.18,0 -8.02,-6.43 -8.02,-7.67 0,-0.5 0.5,-0.5 0.6,-0.5 0.39,0 0.54,0.1 0.64,0.54 1.7,5.29 4.98,6.53 6.68,6.53 0.95,0 2.69,-0.45 2.69,-3.33 0,-1.55 -0.85,-4.89 -2.69,-11.86 -0.8,-3.09 -2.54,-5.18 -4.73,-5.18 -0.3,0 -1.45,0 -2.49,0.65 1.24,0.25 2.34,1.29 2.34,2.69 0,1.34 -1.1,1.74 -1.85,1.74 -1.49,0 -2.73,-1.3 -2.73,-2.89 0,-2.29 2.48,-3.29 4.68,-3.29 3.28,0 5.08,3.49 5.23,3.79 0.6,-1.85 2.39,-3.79 5.38,-3.79 5.13,0 7.97,6.43 7.97,7.67 0,0.5 -0.45,0.5 -0.6,0.5 -0.45,0 -0.55,-0.2 -0.65,-0.55 -1.64,-5.33 -5.03,-6.52 -6.62,-6.52 -1.95,0 -2.74,1.59 -2.74,3.29 0,1.09 0.29,2.19 0.85,4.38 z"
           inkscape:connector-curvature="0"
           style="fill:#000000;stroke-width:0" /><path
           id="path4657"
           d="m 489.41,418.46 0.16,-0.04 0.16,-0.04 0.16,-0.04 0.15,-0.03 0.15,-0.03 0.14,-0.03 0.14,-0.03 0.14,-0.02 0.13,-0.03 0.13,-0.02 0.12,-0.02 0.12,-0.02 0.12,-0.01 0.11,-0.02 0.11,-0.01 0.1,-0.01 0.11,-0.01 0.09,-0.01 0.1,-0.01 0.09,0 0.09,-0.01 0.08,0 0.08,-0.01 0.08,0 0.08,0 0.07,0 0.07,0 0.06,-0.01 0.07,0 0.06,0 0.05,0 0.06,0 c 4.6,0 7.32,3.14 7.32,3.66 0,0.39 -0.24,0.49 -0.42,0.49 -0.07,0 -0.14,0 -0.28,-0.1 -0.84,-0.32 -2.68,-1.01 -5.26,-1.01 -0.98,0 -2.83,0.07 -5.1,0.94 -0.34,0.17 -0.41,0.17 -0.45,0.17 -0.45,0 -0.45,-0.38 -0.45,-0.94 l 0,-10.28 c 0,-0.6 0,-1.02 0.56,-1.02 0.31,0 0.34,0.07 0.7,0.49 1.49,1.92 3.62,2.2 4.84,2.2 2.09,0 3.04,-1.67 3.21,-1.96 0.63,-1.14 0.84,-2.47 0.84,-4.49 0,-1.05 0,-3.11 -1.05,-4.64 -0.87,-1.26 -2.37,-2.09 -4.08,-2.09 -2.27,0 -4.6,1.25 -5.47,3.56 1.32,-0.11 1.98,0.76 1.98,1.7 0,1.5 -1.29,1.78 -1.74,1.78 -0.07,0 -1.74,0 -1.74,-1.88 0,-3.14 2.85,-6.28 7.04,-6.28 4.46,0 8.37,3.31 8.37,7.71 0,3.94 -3,7.56 -7.32,7.56 -1.54,0 -3.35,-0.38 -4.88,-1.7 z"
           inkscape:connector-curvature="0"
           style="fill:#000000;stroke-width:0" /></g>    </g>
    <circle
       r="17.67767"
       cy="169.10866"
       cx="300.93817"
       id="circle4847"
       style="fill:#ffffff;fill-rule:evenodd;stroke:#000000;stroke-width:1px;stroke-linecap:butt;stroke-linejoin:miter;stroke-opacity:1" />
    <circle
       style="fill:#ffffff;fill-rule:evenodd;stroke:#000000;stroke-width:1px;stroke-linecap:butt;stroke-linejoin:miter;stroke-opacity:1"
       id="circle4849"
       cx="300.93817"
       cy="169.10866"
       r="17.67767" />
    <circle
       r="17.67767"
       cy="169.10866"
       cx="456.50165"
       id="circle4851"
       style="fill:#ffffff;fill-rule:evenodd;stroke:#000000;stroke-width:1px;stroke-linecap:butt;stroke-linejoin:miter;stroke-opacity:1" />
    <path
       inkscape:connector-curvature="0"
       id="path4853"
       d="m 316.59553,169.61374 121.52831,0"
       style="fill:none;fill-rule:evenodd;stroke:#000000;stroke-width:1.63507974px;stroke-linecap:butt;stroke-linejoin:miter;stroke-opacity:1;marker-end:url(#marker7985)" />
    <g
       transform="matrix(0.5938712,0,0,0.5938712,108.26416,-39.050972)"
       id="g4855">
      <g
         style="font-style:normal;font-variant:normal;font-weight:normal;font-stretch:normal;letter-spacing:normal;word-spacing:normal;text-anchor:start;fill:none;fill-opacity:1;fill-rule:evenodd;stroke:#000000;stroke-linecap:butt;stroke-linejoin:miter;stroke-miterlimit:10.43299961;stroke-dasharray:none;stroke-dashoffset:0;stroke-opacity:1"
         word-spacing="normal"
         letter-spacing="normal"
         font-size-adjust="none"
         font-stretch="normal"
         font-weight="normal"
         font-variant="normal"
         font-style="normal"
         stroke-miterlimit="10.433"
         xml:space="preserve"
         transform="matrix(1.0629921,0,0,-1.0629921,-186.02362,789.27165)"
         id="g4857"><path
           style="fill:#000000;stroke-width:0"
           inkscape:connector-curvature="0"
           id="path4859"
           d="m 472.64,421.04 0.03,0.13 0.03,0.15 0.05,0.17 0.04,0.18 0.06,0.19 0.06,0.21 0.06,0.21 0.07,0.23 0.08,0.23 0.09,0.24 0.1,0.25 0.1,0.24 0.11,0.25 0.12,0.25 0.13,0.25 0.14,0.25 0.15,0.24 0.15,0.24 0.17,0.23 0.18,0.22 0.18,0.22 0.2,0.2 0.21,0.19 0.22,0.18 0.23,0.16 0.25,0.14 0.12,0.07 0.13,0.06 0.13,0.05 0.14,0.05 0.14,0.05 0.14,0.04 0.14,0.03 0.15,0.03 0.15,0.02 0.16,0.02 0.16,0.01 0.16,0 c 0.25,0 1.45,0 2.49,-0.65 -1.4,-0.25 -2.39,-1.49 -2.39,-2.68 0,-0.8 0.54,-1.75 1.89,-1.75 1.1,0 2.69,0.9 2.69,2.89 0,2.59 -2.94,3.29 -4.63,3.29 -2.89,0 -4.64,-2.64 -5.23,-3.79 -1.25,3.29 -3.94,3.79 -5.38,3.79 -5.18,0 -8.02,-6.43 -8.02,-7.67 0,-0.5 0.5,-0.5 0.6,-0.5 0.39,0 0.54,0.1 0.64,0.54 1.7,5.29 4.98,6.53 6.68,6.53 0.95,0 2.69,-0.45 2.69,-3.33 0,-1.55 -0.85,-4.89 -2.69,-11.86 -0.8,-3.09 -2.54,-5.18 -4.73,-5.18 -0.3,0 -1.45,0 -2.49,0.65 1.24,0.25 2.34,1.29 2.34,2.69 0,1.34 -1.1,1.74 -1.85,1.74 -1.49,0 -2.73,-1.3 -2.73,-2.89 0,-2.29 2.48,-3.29 4.68,-3.29 3.28,0 5.08,3.49 5.23,3.79 0.6,-1.85 2.39,-3.79 5.38,-3.79 5.13,0 7.97,6.43 7.97,7.67 0,0.5 -0.45,0.5 -0.6,0.5 -0.45,0 -0.55,-0.2 -0.65,-0.55 -1.64,-5.33 -5.03,-6.52 -6.62,-6.52 -1.95,0 -2.74,1.59 -2.74,3.29 0,1.09 0.29,2.19 0.85,4.38 z" /><path
           style="fill:#000000;stroke-width:0"
           inkscape:connector-curvature="0"
           id="path4861"
           d="m 495.68,421.18 0,0.04 0,0.04 0,0.04 0,0.04 0,0.04 0,0.04 0,0.03 0,0.04 -0.01,0.03 0,0.03 0,0.04 0,0.03 -0.01,0.02 0,0.03 0,0.03 -0.01,0.03 0,0.02 0,0.02 -0.02,0.05 -0.01,0.04 -0.01,0.04 -0.02,0.03 -0.02,0.03 -0.02,0.03 -0.03,0.03 -0.02,0.02 -0.03,0.02 -0.04,0.02 -0.03,0.01 -0.04,0.01 -0.05,0.02 -0.05,0 -0.02,0.01 -0.03,0 -0.03,0.01 -0.02,0 -0.03,0 -0.03,0 -0.04,0 -0.03,0.01 -0.03,0 -0.04,0 -0.03,0 -0.04,0 -0.04,0 -0.04,0 -0.04,0 -0.04,0 -0.05,0 -0.04,0 c -2.24,-2.19 -5.41,-2.23 -6.84,-2.23 l 0,-1.25 c 0.84,0 3.14,0 5.06,0.97 l 0,-17.78 c 0,-1.15 0,-1.61 -3.49,-1.61 l -1.33,0 0,-1.25 12.45,0 0,1.25 -1.32,0 c -3.49,0 -3.49,0.46 -3.49,1.61 z" /></g>    </g>
    <g
       transform="matrix(0.5938712,0,0,0.5938712,263.1213,-38.336692)"
       id="g4863">
      <g
         style="font-style:normal;font-variant:normal;font-weight:normal;font-stretch:normal;letter-spacing:normal;word-spacing:normal;text-anchor:start;fill:none;fill-opacity:1;fill-rule:evenodd;stroke:#000000;stroke-linecap:butt;stroke-linejoin:miter;stroke-miterlimit:10.43299961;stroke-dasharray:none;stroke-dashoffset:0;stroke-opacity:1"
         id="g4865"
         transform="matrix(1.0629921,0,0,-1.0629921,-186.02362,789.27165)"
         xml:space="preserve"
         stroke-miterlimit="10.433"
         font-style="normal"
         font-variant="normal"
         font-weight="normal"
         font-stretch="normal"
         font-size-adjust="none"
         letter-spacing="normal"
         word-spacing="normal"><path
           style="fill:#000000;stroke-width:0"
           inkscape:connector-curvature="0"
           d="m 472.64,421.04 0.03,0.13 0.03,0.15 0.05,0.17 0.04,0.18 0.06,0.19 0.06,0.21 0.06,0.21 0.07,0.23 0.08,0.23 0.09,0.24 0.1,0.25 0.1,0.24 0.11,0.25 0.12,0.25 0.13,0.25 0.14,0.25 0.15,0.24 0.15,0.24 0.17,0.23 0.18,0.22 0.18,0.22 0.2,0.2 0.21,0.19 0.22,0.18 0.23,0.16 0.25,0.14 0.12,0.07 0.13,0.06 0.13,0.05 0.14,0.05 0.14,0.05 0.14,0.04 0.14,0.03 0.15,0.03 0.15,0.02 0.16,0.02 0.16,0.01 0.16,0 c 0.25,0 1.45,0 2.49,-0.65 -1.4,-0.25 -2.39,-1.49 -2.39,-2.68 0,-0.8 0.54,-1.75 1.89,-1.75 1.1,0 2.69,0.9 2.69,2.89 0,2.59 -2.94,3.29 -4.63,3.29 -2.89,0 -4.64,-2.64 -5.23,-3.79 -1.25,3.29 -3.94,3.79 -5.38,3.79 -5.18,0 -8.02,-6.43 -8.02,-7.67 0,-0.5 0.5,-0.5 0.6,-0.5 0.39,0 0.54,0.1 0.64,0.54 1.7,5.29 4.98,6.53 6.68,6.53 0.95,0 2.69,-0.45 2.69,-3.33 0,-1.55 -0.85,-4.89 -2.69,-11.86 -0.8,-3.09 -2.54,-5.18 -4.73,-5.18 -0.3,0 -1.45,0 -2.49,0.65 1.24,0.25 2.34,1.29 2.34,2.69 0,1.34 -1.1,1.74 -1.85,1.74 -1.49,0 -2.73,-1.3 -2.73,-2.89 0,-2.29 2.48,-3.29 4.68,-3.29 3.28,0 5.08,3.49 5.23,3.79 0.6,-1.85 2.39,-3.79 5.38,-3.79 5.13,0 7.97,6.43 7.97,7.67 0,0.5 -0.45,0.5 -0.6,0.5 -0.45,0 -0.55,-0.2 -0.65,-0.55 -1.64,-5.33 -5.03,-6.52 -6.62,-6.52 -1.95,0 -2.74,1.59 -2.74,3.29 0,1.09 0.29,2.19 0.85,4.38 z"
           id="path4867" /><path
           style="fill:#000000;stroke-width:0"
           inkscape:connector-curvature="0"
           d="m 501.61,405.35 -1.19,0 c -0.1,-0.77 -0.45,-2.83 -0.9,-3.18 -0.28,-0.21 -2.97,-0.21 -3.45,-0.21 l -6.42,0 c 3.66,3.25 4.88,4.22 6.97,5.86 2.58,2.06 4.99,4.22 4.99,7.54 0,4.21 -3.7,6.79 -8.16,6.79 -4.33,0 -7.25,-3.03 -7.25,-6.24 0,-1.78 1.5,-1.95 1.84,-1.95 0.84,0 1.85,0.59 1.85,1.85 0,0.62 -0.24,1.85 -2.05,1.85 1.08,2.47 3.45,3.24 5.09,3.24 3.48,0 5.3,-2.72 5.3,-5.54 0,-3.04 -2.16,-5.45 -3.28,-6.7 l -8.4,-8.3 c -0.35,-0.31 -0.35,-0.38 -0.35,-1.36 l 14.36,0 z"
           id="path4869" /></g>    </g>
    <circle
       style="fill:#ffffff;fill-rule:evenodd;stroke:#000000;stroke-width:1px;stroke-linecap:butt;stroke-linejoin:miter;stroke-opacity:1"
       id="circle4871"
       cx="300.93817"
       cy="169.10866"
       r="17.67767" />
    <circle
       r="17.67767"
       cy="169.10866"
       cx="300.93817"
       id="circle4873"
       style="fill:#ffffff;fill-rule:evenodd;stroke:#000000;stroke-width:1px;stroke-linecap:butt;stroke-linejoin:miter;stroke-opacity:1" />
    <circle
       style="fill:#ffffff;fill-rule:evenodd;stroke:#000000;stroke-width:1px;stroke-linecap:butt;stroke-linejoin:miter;stroke-opacity:1"
       id="circle4875"
       cx="456.50165"
       cy="169.10866"
       r="17.67767" />
    <g
       id="g5102"
       transform="matrix(0.59740361,0,0,0.59740361,107.48921,-40.029925)">
      <g
         id="g5104"
         transform="matrix(1.0629921,0,0,-1.0629921,-186.02362,789.27165)"
         xml:space="preserve"
         stroke-miterlimit="10.433"
         font-style="normal"
         font-variant="normal"
         font-weight="normal"
         font-stretch="normal"
         font-size-adjust="none"
         letter-spacing="normal"
         word-spacing="normal"
         style="font-style:normal;font-variant:normal;font-weight:normal;font-stretch:normal;letter-spacing:normal;word-spacing:normal;text-anchor:start;fill:none;fill-opacity:1;fill-rule:evenodd;stroke:#000000;stroke-linecap:butt;stroke-linejoin:miter;stroke-miterlimit:10.43299961;stroke-dasharray:none;stroke-dashoffset:0;stroke-opacity:1"><path
           d="m 472.64,421.04 0.03,0.13 0.03,0.15 0.05,0.17 0.04,0.18 0.06,0.19 0.06,0.21 0.06,0.21 0.07,0.23 0.08,0.23 0.09,0.24 0.1,0.25 0.1,0.24 0.11,0.25 0.12,0.25 0.13,0.25 0.14,0.25 0.15,0.24 0.15,0.24 0.17,0.23 0.18,0.22 0.18,0.22 0.2,0.2 0.21,0.19 0.22,0.18 0.23,0.16 0.25,0.14 0.12,0.07 0.13,0.06 0.13,0.05 0.14,0.05 0.14,0.05 0.14,0.04 0.14,0.03 0.15,0.03 0.15,0.02 0.16,0.02 0.16,0.01 0.16,0 c 0.25,0 1.45,0 2.49,-0.65 -1.4,-0.25 -2.39,-1.49 -2.39,-2.68 0,-0.8 0.54,-1.75 1.89,-1.75 1.1,0 2.69,0.9 2.69,2.89 0,2.59 -2.94,3.29 -4.63,3.29 -2.89,0 -4.64,-2.64 -5.23,-3.79 -1.25,3.29 -3.94,3.79 -5.38,3.79 -5.18,0 -8.02,-6.43 -8.02,-7.67 0,-0.5 0.5,-0.5 0.6,-0.5 0.39,0 0.54,0.1 0.64,0.54 1.7,5.29 4.98,6.53 6.68,6.53 0.95,0 2.69,-0.45 2.69,-3.33 0,-1.55 -0.85,-4.89 -2.69,-11.86 -0.8,-3.09 -2.54,-5.18 -4.73,-5.18 -0.3,0 -1.45,0 -2.49,0.65 1.24,0.25 2.34,1.29 2.34,2.69 0,1.34 -1.1,1.74 -1.85,1.74 -1.49,0 -2.73,-1.3 -2.73,-2.89 0,-2.29 2.48,-3.29 4.68,-3.29 3.28,0 5.08,3.49 5.23,3.79 0.6,-1.85 2.39,-3.79 5.38,-3.79 5.13,0 7.97,6.43 7.97,7.67 0,0.5 -0.45,0.5 -0.6,0.5 -0.45,0 -0.55,-0.2 -0.65,-0.55 -1.64,-5.33 -5.03,-6.52 -6.62,-6.52 -1.95,0 -2.74,1.59 -2.74,3.29 0,1.09 0.29,2.19 0.85,4.38 z"
           id="path5106"
           inkscape:connector-curvature="0"
           style="fill:#000000;stroke-width:0" /><path
           d="m 493.52,410.64 0.25,0 0.25,-0.02 0.24,-0.02 0.24,-0.04 0.23,-0.05 0.23,-0.06 0.22,-0.07 0.22,-0.09 0.21,-0.09 0.2,-0.11 0.19,-0.11 0.19,-0.13 0.18,-0.13 0.18,-0.15 0.17,-0.16 0.15,-0.17 0.16,-0.18 0.14,-0.2 0.13,-0.2 0.13,-0.21 0.12,-0.23 0.11,-0.23 0.09,-0.25 0.09,-0.26 0.08,-0.27 0.07,-0.28 0.06,-0.29 0.05,-0.3 0.04,-0.31 0.03,-0.32 0.02,-0.33 0,-0.35 c 0,-4.32 -2.51,-5.61 -4.53,-5.61 -1.39,0 -4.46,0.38 -5.93,2.44 1.64,0.07 2.02,1.22 2.02,1.95 0,1.12 -0.83,1.92 -1.91,1.92 -0.98,0 -1.96,-0.59 -1.96,-2.02 0,-3.28 3.63,-5.41 7.85,-5.41 4.84,0 8.19,3.25 8.19,6.73 0,2.72 -2.23,5.44 -6.06,6.24 3.66,1.33 4.98,3.94 4.98,6.07 0,2.76 -3.17,4.81 -7.04,4.81 -3.87,0 -6.84,-1.88 -6.84,-4.67 0,-1.18 0.77,-1.85 1.82,-1.85 1.08,0 1.77,0.8 1.77,1.78 0,1.01 -0.69,1.75 -1.77,1.81 1.22,1.54 3.62,1.92 4.92,1.92 1.56,0 3.76,-0.76 3.76,-3.8 0,-1.46 -0.49,-3.07 -1.39,-4.15 -1.16,-1.32 -2.13,-1.39 -3.87,-1.5 -0.88,-0.07 -0.95,-0.07 -1.12,-0.1 -0.07,0 -0.35,-0.07 -0.35,-0.46 0,-0.49 0.31,-0.49 0.91,-0.49 z"
           id="path5108"
           inkscape:connector-curvature="0"
           style="fill:#000000;stroke-width:0" /></g>    </g>
    <g
       id="g3983"
       transform="matrix(0.5938712,0,0,0.5938712,262.7849,-38.728394)">
      <g
         word-spacing="normal"
         letter-spacing="normal"
         font-size-adjust="none"
         font-stretch="normal"
         font-weight="normal"
         font-variant="normal"
         font-style="normal"
         stroke-miterlimit="10.433"
         xml:space="preserve"
         transform="matrix(1.0629921,0,0,-1.0629921,-186.02362,789.27165)"
         id="g3985"
         style="font-style:normal;font-variant:normal;font-weight:normal;font-stretch:normal;letter-spacing:normal;word-spacing:normal;text-anchor:start;fill:none;fill-opacity:1;fill-rule:evenodd;stroke:#000000;stroke-linecap:butt;stroke-linejoin:miter;stroke-miterlimit:10.43299961;stroke-dasharray:none;stroke-dashoffset:0;stroke-opacity:1"><path
           id="path3987"
           d="m 472.64,421.04 0.03,0.13 0.03,0.15 0.05,0.17 0.04,0.18 0.06,0.19 0.06,0.21 0.06,0.21 0.07,0.23 0.08,0.23 0.09,0.24 0.1,0.25 0.1,0.24 0.11,0.25 0.12,0.25 0.13,0.25 0.14,0.25 0.15,0.24 0.15,0.24 0.17,0.23 0.18,0.22 0.18,0.22 0.2,0.2 0.21,0.19 0.22,0.18 0.23,0.16 0.25,0.14 0.12,0.07 0.13,0.06 0.13,0.05 0.14,0.05 0.14,0.05 0.14,0.04 0.14,0.03 0.15,0.03 0.15,0.02 0.16,0.02 0.16,0.01 0.16,0 c 0.25,0 1.45,0 2.49,-0.65 -1.4,-0.25 -2.39,-1.49 -2.39,-2.68 0,-0.8 0.54,-1.75 1.89,-1.75 1.1,0 2.69,0.9 2.69,2.89 0,2.59 -2.94,3.29 -4.63,3.29 -2.89,0 -4.64,-2.64 -5.23,-3.79 -1.25,3.29 -3.94,3.79 -5.38,3.79 -5.18,0 -8.02,-6.43 -8.02,-7.67 0,-0.5 0.5,-0.5 0.6,-0.5 0.39,0 0.54,0.1 0.64,0.54 1.7,5.29 4.98,6.53 6.68,6.53 0.95,0 2.69,-0.45 2.69,-3.33 0,-1.55 -0.85,-4.89 -2.69,-11.86 -0.8,-3.09 -2.54,-5.18 -4.73,-5.18 -0.3,0 -1.45,0 -2.49,0.65 1.24,0.25 2.34,1.29 2.34,2.69 0,1.34 -1.1,1.74 -1.85,1.74 -1.49,0 -2.73,-1.3 -2.73,-2.89 0,-2.29 2.48,-3.29 4.68,-3.29 3.28,0 5.08,3.49 5.23,3.79 0.6,-1.85 2.39,-3.79 5.38,-3.79 5.13,0 7.97,6.43 7.97,7.67 0,0.5 -0.45,0.5 -0.6,0.5 -0.45,0 -0.55,-0.2 -0.65,-0.55 -1.64,-5.33 -5.03,-6.52 -6.62,-6.52 -1.95,0 -2.74,1.59 -2.74,3.29 0,1.09 0.29,2.19 0.85,4.38 z"
           inkscape:connector-curvature="0"
           style="fill:#000000;stroke-width:0" /><path
           id="path3989"
           d="m 502.45,404.72 0,1.25 -3.88,0 0,15.56 c 0,0.73 0,0.97 -0.76,0.97 -0.42,0 -0.56,0 -0.91,-0.49 l -11.54,-16.04 0,-1.25 10.25,0 0.25,1.25 -9.21,0 9.21,12.76 0,-12.76 -0.25,-1.25 0,-2.86 c 0,-1.19 0,-1.61 -2.82,-1.61 l -0.95,0 0,-1.25 10.5,0 0,1.25 -0.94,0 c -2.83,0 -2.83,0.42 -2.83,1.61 l 0,2.86 z"
           inkscape:connector-curvature="0"
           style="fill:#000000;stroke-width:0" /></g>    </g>
    <rect
       style="fill:#280b0b"
       id="rect8015-3"
       width="25.253813"
       height="25.253813"
       x="226.97476"
       y="294.13437" />
    <circle
       r="17.67767"
       cy="307.50336"
       cx="299.08078"
       id="circle5752"
       style="fill:#ffffff;fill-rule:evenodd;stroke:#000000;stroke-width:1px;stroke-linecap:butt;stroke-linejoin:miter;stroke-opacity:1" />
    <circle
       style="fill:#ffffff;fill-rule:evenodd;stroke:#000000;stroke-width:1px;stroke-linecap:butt;stroke-linejoin:miter;stroke-opacity:1"
       id="circle5754"
       cx="299.08078"
       cy="307.50336"
       r="17.67767" />
    <circle
       r="17.67767"
       cy="307.50336"
       cx="454.64426"
       id="circle5756"
       style="fill:#ffffff;fill-rule:evenodd;stroke:#000000;stroke-width:1px;stroke-linecap:butt;stroke-linejoin:miter;stroke-opacity:1" />
    <circle
       style="fill:#ffffff;fill-rule:evenodd;stroke:#000000;stroke-width:1px;stroke-linecap:butt;stroke-linejoin:miter;stroke-opacity:1"
       id="circle5758"
       cx="629.4007"
       cy="251.94493"
       r="17.67767" />
    <path
       inkscape:connector-curvature="0"
       id="path5760"
       d="m 314.73815,308.00842 121.52831,0"
       style="fill:none;fill-rule:evenodd;stroke:#000000;stroke-width:1.63507974px;stroke-linecap:butt;stroke-linejoin:miter;stroke-opacity:1" />
    <g
       transform="matrix(0.5938712,0,0,0.5938712,106.40678,99.343709)"
       id="g5762">
      <g
         style="font-style:normal;font-variant:normal;font-weight:normal;font-stretch:normal;letter-spacing:normal;word-spacing:normal;text-anchor:start;fill:none;fill-opacity:1;fill-rule:evenodd;stroke:#000000;stroke-linecap:butt;stroke-linejoin:miter;stroke-miterlimit:10.43299961;stroke-dasharray:none;stroke-dashoffset:0;stroke-opacity:1"
         word-spacing="normal"
         letter-spacing="normal"
         font-size-adjust="none"
         font-stretch="normal"
         font-weight="normal"
         font-variant="normal"
         font-style="normal"
         stroke-miterlimit="10.433"
         xml:space="preserve"
         transform="matrix(1.0629921,0,0,-1.0629921,-186.02362,789.27165)"
         id="g5764"><path
           style="fill:#000000;stroke-width:0"
           inkscape:connector-curvature="0"
           id="path5766"
           d="m 472.64,421.04 0.03,0.13 0.03,0.15 0.05,0.17 0.04,0.18 0.06,0.19 0.06,0.21 0.06,0.21 0.07,0.23 0.08,0.23 0.09,0.24 0.1,0.25 0.1,0.24 0.11,0.25 0.12,0.25 0.13,0.25 0.14,0.25 0.15,0.24 0.15,0.24 0.17,0.23 0.18,0.22 0.18,0.22 0.2,0.2 0.21,0.19 0.22,0.18 0.23,0.16 0.25,0.14 0.12,0.07 0.13,0.06 0.13,0.05 0.14,0.05 0.14,0.05 0.14,0.04 0.14,0.03 0.15,0.03 0.15,0.02 0.16,0.02 0.16,0.01 0.16,0 c 0.25,0 1.45,0 2.49,-0.65 -1.4,-0.25 -2.39,-1.49 -2.39,-2.68 0,-0.8 0.54,-1.75 1.89,-1.75 1.1,0 2.69,0.9 2.69,2.89 0,2.59 -2.94,3.29 -4.63,3.29 -2.89,0 -4.64,-2.64 -5.23,-3.79 -1.25,3.29 -3.94,3.79 -5.38,3.79 -5.18,0 -8.02,-6.43 -8.02,-7.67 0,-0.5 0.5,-0.5 0.6,-0.5 0.39,0 0.54,0.1 0.64,0.54 1.7,5.29 4.98,6.53 6.68,6.53 0.95,0 2.69,-0.45 2.69,-3.33 0,-1.55 -0.85,-4.89 -2.69,-11.86 -0.8,-3.09 -2.54,-5.18 -4.73,-5.18 -0.3,0 -1.45,0 -2.49,0.65 1.24,0.25 2.34,1.29 2.34,2.69 0,1.34 -1.1,1.74 -1.85,1.74 -1.49,0 -2.73,-1.3 -2.73,-2.89 0,-2.29 2.48,-3.29 4.68,-3.29 3.28,0 5.08,3.49 5.23,3.79 0.6,-1.85 2.39,-3.79 5.38,-3.79 5.13,0 7.97,6.43 7.97,7.67 0,0.5 -0.45,0.5 -0.6,0.5 -0.45,0 -0.55,-0.2 -0.65,-0.55 -1.64,-5.33 -5.03,-6.52 -6.62,-6.52 -1.95,0 -2.74,1.59 -2.74,3.29 0,1.09 0.29,2.19 0.85,4.38 z" /><path
           style="fill:#000000;stroke-width:0"
           inkscape:connector-curvature="0"
           id="path5768"
           d="m 495.68,421.18 0,0.04 0,0.04 0,0.04 0,0.04 0,0.04 0,0.04 0,0.03 0,0.04 -0.01,0.03 0,0.03 0,0.04 0,0.03 -0.01,0.02 0,0.03 0,0.03 -0.01,0.03 0,0.02 0,0.02 -0.02,0.05 -0.01,0.04 -0.01,0.04 -0.02,0.03 -0.02,0.03 -0.02,0.03 -0.03,0.03 -0.02,0.02 -0.03,0.02 -0.04,0.02 -0.03,0.01 -0.04,0.01 -0.05,0.02 -0.05,0 -0.02,0.01 -0.03,0 -0.03,0.01 -0.02,0 -0.03,0 -0.03,0 -0.04,0 -0.03,0.01 -0.03,0 -0.04,0 -0.03,0 -0.04,0 -0.04,0 -0.04,0 -0.04,0 -0.04,0 -0.05,0 -0.04,0 c -2.24,-2.19 -5.41,-2.23 -6.84,-2.23 l 0,-1.25 c 0.84,0 3.14,0 5.06,0.97 l 0,-17.78 c 0,-1.15 0,-1.61 -3.49,-1.61 l -1.33,0 0,-1.25 12.45,0 0,1.25 -1.32,0 c -3.49,0 -3.49,0.46 -3.49,1.61 z" /></g>    </g>
    <g
       transform="matrix(0.5938712,0,0,0.5938712,261.26392,100.05799)"
       id="g5770">
      <g
         style="font-style:normal;font-variant:normal;font-weight:normal;font-stretch:normal;letter-spacing:normal;word-spacing:normal;text-anchor:start;fill:none;fill-opacity:1;fill-rule:evenodd;stroke:#000000;stroke-linecap:butt;stroke-linejoin:miter;stroke-miterlimit:10.43299961;stroke-dasharray:none;stroke-dashoffset:0;stroke-opacity:1"
         id="g5772"
         transform="matrix(1.0629921,0,0,-1.0629921,-186.02362,789.27165)"
         xml:space="preserve"
         stroke-miterlimit="10.433"
         font-style="normal"
         font-variant="normal"
         font-weight="normal"
         font-stretch="normal"
         font-size-adjust="none"
         letter-spacing="normal"
         word-spacing="normal"><path
           style="fill:#000000;stroke-width:0"
           inkscape:connector-curvature="0"
           d="m 472.64,421.04 0.03,0.13 0.03,0.15 0.05,0.17 0.04,0.18 0.06,0.19 0.06,0.21 0.06,0.21 0.07,0.23 0.08,0.23 0.09,0.24 0.1,0.25 0.1,0.24 0.11,0.25 0.12,0.25 0.13,0.25 0.14,0.25 0.15,0.24 0.15,0.24 0.17,0.23 0.18,0.22 0.18,0.22 0.2,0.2 0.21,0.19 0.22,0.18 0.23,0.16 0.25,0.14 0.12,0.07 0.13,0.06 0.13,0.05 0.14,0.05 0.14,0.05 0.14,0.04 0.14,0.03 0.15,0.03 0.15,0.02 0.16,0.02 0.16,0.01 0.16,0 c 0.25,0 1.45,0 2.49,-0.65 -1.4,-0.25 -2.39,-1.49 -2.39,-2.68 0,-0.8 0.54,-1.75 1.89,-1.75 1.1,0 2.69,0.9 2.69,2.89 0,2.59 -2.94,3.29 -4.63,3.29 -2.89,0 -4.64,-2.64 -5.23,-3.79 -1.25,3.29 -3.94,3.79 -5.38,3.79 -5.18,0 -8.02,-6.43 -8.02,-7.67 0,-0.5 0.5,-0.5 0.6,-0.5 0.39,0 0.54,0.1 0.64,0.54 1.7,5.29 4.98,6.53 6.68,6.53 0.95,0 2.69,-0.45 2.69,-3.33 0,-1.55 -0.85,-4.89 -2.69,-11.86 -0.8,-3.09 -2.54,-5.18 -4.73,-5.18 -0.3,0 -1.45,0 -2.49,0.65 1.24,0.25 2.34,1.29 2.34,2.69 0,1.34 -1.1,1.74 -1.85,1.74 -1.49,0 -2.73,-1.3 -2.73,-2.89 0,-2.29 2.48,-3.29 4.68,-3.29 3.28,0 5.08,3.49 5.23,3.79 0.6,-1.85 2.39,-3.79 5.38,-3.79 5.13,0 7.97,6.43 7.97,7.67 0,0.5 -0.45,0.5 -0.6,0.5 -0.45,0 -0.55,-0.2 -0.65,-0.55 -1.64,-5.33 -5.03,-6.52 -6.62,-6.52 -1.95,0 -2.74,1.59 -2.74,3.29 0,1.09 0.29,2.19 0.85,4.38 z"
           id="path5774" /><path
           style="fill:#000000;stroke-width:0"
           inkscape:connector-curvature="0"
           d="m 501.61,405.35 -1.19,0 c -0.1,-0.77 -0.45,-2.83 -0.9,-3.18 -0.28,-0.21 -2.97,-0.21 -3.45,-0.21 l -6.42,0 c 3.66,3.25 4.88,4.22 6.97,5.86 2.58,2.06 4.99,4.22 4.99,7.54 0,4.21 -3.7,6.79 -8.16,6.79 -4.33,0 -7.25,-3.03 -7.25,-6.24 0,-1.78 1.5,-1.95 1.84,-1.95 0.84,0 1.85,0.59 1.85,1.85 0,0.62 -0.24,1.85 -2.05,1.85 1.08,2.47 3.45,3.24 5.09,3.24 3.48,0 5.3,-2.72 5.3,-5.54 0,-3.04 -2.16,-5.45 -3.28,-6.7 l -8.4,-8.3 c -0.35,-0.31 -0.35,-0.38 -0.35,-1.36 l 14.36,0 z"
           id="path5776" /></g>    </g>
    <g
       transform="matrix(0.5938712,0,0,0.5938712,436.97821,44.343709)"
       id="g5778">
      <g
         style="font-style:normal;font-variant:normal;font-weight:normal;font-stretch:normal;letter-spacing:normal;word-spacing:normal;text-anchor:start;fill:none;fill-opacity:1;fill-rule:evenodd;stroke:#000000;stroke-linecap:butt;stroke-linejoin:miter;stroke-miterlimit:10.43299961;stroke-dasharray:none;stroke-dashoffset:0;stroke-opacity:1"
         word-spacing="normal"
         letter-spacing="normal"
         font-size-adjust="none"
         font-stretch="normal"
         font-weight="normal"
         font-variant="normal"
         font-style="normal"
         stroke-miterlimit="10.433"
         xml:space="preserve"
         transform="matrix(1.0629921,0,0,-1.0629921,-186.02362,789.27165)"
         id="g5780"><path
           style="fill:#000000;stroke-width:0"
           inkscape:connector-curvature="0"
           id="path5782"
           d="m 472.64,421.04 0.03,0.13 0.03,0.15 0.05,0.17 0.04,0.18 0.06,0.19 0.06,0.21 0.06,0.21 0.07,0.23 0.08,0.23 0.09,0.24 0.1,0.25 0.1,0.24 0.11,0.25 0.12,0.25 0.13,0.25 0.14,0.25 0.15,0.24 0.15,0.24 0.17,0.23 0.18,0.22 0.18,0.22 0.2,0.2 0.21,0.19 0.22,0.18 0.23,0.16 0.25,0.14 0.12,0.07 0.13,0.06 0.13,0.05 0.14,0.05 0.14,0.05 0.14,0.04 0.14,0.03 0.15,0.03 0.15,0.02 0.16,0.02 0.16,0.01 0.16,0 c 0.25,0 1.45,0 2.49,-0.65 -1.4,-0.25 -2.39,-1.49 -2.39,-2.68 0,-0.8 0.54,-1.75 1.89,-1.75 1.1,0 2.69,0.9 2.69,2.89 0,2.59 -2.94,3.29 -4.63,3.29 -2.89,0 -4.64,-2.64 -5.23,-3.79 -1.25,3.29 -3.94,3.79 -5.38,3.79 -5.18,0 -8.02,-6.43 -8.02,-7.67 0,-0.5 0.5,-0.5 0.6,-0.5 0.39,0 0.54,0.1 0.64,0.54 1.7,5.29 4.98,6.53 6.68,6.53 0.95,0 2.69,-0.45 2.69,-3.33 0,-1.55 -0.85,-4.89 -2.69,-11.86 -0.8,-3.09 -2.54,-5.18 -4.73,-5.18 -0.3,0 -1.45,0 -2.49,0.65 1.24,0.25 2.34,1.29 2.34,2.69 0,1.34 -1.1,1.74 -1.85,1.74 -1.49,0 -2.73,-1.3 -2.73,-2.89 0,-2.29 2.48,-3.29 4.68,-3.29 3.28,0 5.08,3.49 5.23,3.79 0.6,-1.85 2.39,-3.79 5.38,-3.79 5.13,0 7.97,6.43 7.97,7.67 0,0.5 -0.45,0.5 -0.6,0.5 -0.45,0 -0.55,-0.2 -0.65,-0.55 -1.64,-5.33 -5.03,-6.52 -6.62,-6.52 -1.95,0 -2.74,1.59 -2.74,3.29 0,1.09 0.29,2.19 0.85,4.38 z" /><path
           style="fill:#000000;stroke-width:0"
           inkscape:connector-curvature="0"
           id="path5784"
           d="m 493.52,410.64 0.25,0 0.25,-0.02 0.24,-0.02 0.24,-0.04 0.23,-0.05 0.23,-0.06 0.22,-0.07 0.22,-0.09 0.21,-0.09 0.2,-0.11 0.19,-0.11 0.19,-0.13 0.18,-0.13 0.18,-0.15 0.17,-0.16 0.15,-0.17 0.16,-0.18 0.14,-0.2 0.13,-0.2 0.13,-0.21 0.12,-0.23 0.11,-0.23 0.09,-0.25 0.09,-0.26 0.08,-0.27 0.07,-0.28 0.06,-0.29 0.05,-0.3 0.04,-0.31 0.03,-0.32 0.02,-0.33 0,-0.35 c 0,-4.32 -2.51,-5.61 -4.53,-5.61 -1.39,0 -4.46,0.38 -5.93,2.44 1.64,0.07 2.02,1.22 2.02,1.95 0,1.12 -0.83,1.92 -1.91,1.92 -0.98,0 -1.96,-0.59 -1.96,-2.02 0,-3.28 3.63,-5.41 7.85,-5.41 4.84,0 8.19,3.25 8.19,6.73 0,2.72 -2.23,5.44 -6.06,6.24 3.66,1.33 4.98,3.94 4.98,6.07 0,2.76 -3.17,4.81 -7.04,4.81 -3.87,0 -6.84,-1.88 -6.84,-4.67 0,-1.18 0.77,-1.85 1.82,-1.85 1.08,0 1.77,0.8 1.77,1.78 0,1.01 -0.69,1.75 -1.77,1.81 1.22,1.54 3.62,1.92 4.92,1.92 1.56,0 3.76,-0.76 3.76,-3.8 0,-1.46 -0.49,-3.07 -1.39,-4.15 -1.16,-1.32 -2.13,-1.39 -3.87,-1.5 -0.88,-0.07 -0.95,-0.07 -1.12,-0.1 -0.07,0 -0.35,-0.07 -0.35,-0.46 0,-0.49 0.31,-0.49 0.91,-0.49 z" /></g>    </g>
    <circle
       style="fill:#ffffff;fill-rule:evenodd;stroke:#000000;stroke-width:1px;stroke-linecap:butt;stroke-linejoin:miter;stroke-opacity:1"
       id="circle5786"
       cx="299.08078"
       cy="307.50336"
       r="17.67767" />
    <circle
       r="17.67767"
       cy="307.50336"
       cx="299.08078"
       id="circle5788"
       style="fill:#ffffff;fill-rule:evenodd;stroke:#000000;stroke-width:1px;stroke-linecap:butt;stroke-linejoin:miter;stroke-opacity:1" />
    <circle
       style="fill:#ffffff;fill-rule:evenodd;stroke:#000000;stroke-width:1px;stroke-linecap:butt;stroke-linejoin:miter;stroke-opacity:1"
       id="circle5790"
       cx="454.64426"
       cy="307.50336"
       r="17.67767" />
    <circle
       r="17.67767"
       cy="251.94493"
       cx="629.4007"
       id="circle5792"
       style="fill:#ffffff;fill-rule:evenodd;stroke:#000000;stroke-width:1px;stroke-linecap:butt;stroke-linejoin:miter;stroke-opacity:1" />
    <g
       id="g5794"
       transform="matrix(0.5938712,0,0,0.5938712,106.40678,99.343709)">
      <g
         id="g5796"
         transform="matrix(1.0629921,0,0,-1.0629921,-186.02362,789.27165)"
         xml:space="preserve"
         stroke-miterlimit="10.433"
         font-style="normal"
         font-variant="normal"
         font-weight="normal"
         font-stretch="normal"
         font-size-adjust="none"
         letter-spacing="normal"
         word-spacing="normal"
         style="font-style:normal;font-variant:normal;font-weight:normal;font-stretch:normal;letter-spacing:normal;word-spacing:normal;text-anchor:start;fill:none;fill-opacity:1;fill-rule:evenodd;stroke:#000000;stroke-linecap:butt;stroke-linejoin:miter;stroke-miterlimit:10.43299961;stroke-dasharray:none;stroke-dashoffset:0;stroke-opacity:1"><path
           d="m 472.64,421.04 0.03,0.13 0.03,0.15 0.05,0.17 0.04,0.18 0.06,0.19 0.06,0.21 0.06,0.21 0.07,0.23 0.08,0.23 0.09,0.24 0.1,0.25 0.1,0.24 0.11,0.25 0.12,0.25 0.13,0.25 0.14,0.25 0.15,0.24 0.15,0.24 0.17,0.23 0.18,0.22 0.18,0.22 0.2,0.2 0.21,0.19 0.22,0.18 0.23,0.16 0.25,0.14 0.12,0.07 0.13,0.06 0.13,0.05 0.14,0.05 0.14,0.05 0.14,0.04 0.14,0.03 0.15,0.03 0.15,0.02 0.16,0.02 0.16,0.01 0.16,0 c 0.25,0 1.45,0 2.49,-0.65 -1.4,-0.25 -2.39,-1.49 -2.39,-2.68 0,-0.8 0.54,-1.75 1.89,-1.75 1.1,0 2.69,0.9 2.69,2.89 0,2.59 -2.94,3.29 -4.63,3.29 -2.89,0 -4.64,-2.64 -5.23,-3.79 -1.25,3.29 -3.94,3.79 -5.38,3.79 -5.18,0 -8.02,-6.43 -8.02,-7.67 0,-0.5 0.5,-0.5 0.6,-0.5 0.39,0 0.54,0.1 0.64,0.54 1.7,5.29 4.98,6.53 6.68,6.53 0.95,0 2.69,-0.45 2.69,-3.33 0,-1.55 -0.85,-4.89 -2.69,-11.86 -0.8,-3.09 -2.54,-5.18 -4.73,-5.18 -0.3,0 -1.45,0 -2.49,0.65 1.24,0.25 2.34,1.29 2.34,2.69 0,1.34 -1.1,1.74 -1.85,1.74 -1.49,0 -2.73,-1.3 -2.73,-2.89 0,-2.29 2.48,-3.29 4.68,-3.29 3.28,0 5.08,3.49 5.23,3.79 0.6,-1.85 2.39,-3.79 5.38,-3.79 5.13,0 7.97,6.43 7.97,7.67 0,0.5 -0.45,0.5 -0.6,0.5 -0.45,0 -0.55,-0.2 -0.65,-0.55 -1.64,-5.33 -5.03,-6.52 -6.62,-6.52 -1.95,0 -2.74,1.59 -2.74,3.29 0,1.09 0.29,2.19 0.85,4.38 z"
           id="path5798"
           inkscape:connector-curvature="0"
           style="fill:#000000;stroke-width:0" /><path
           d="m 495.68,421.18 0,0.04 0,0.04 0,0.04 0,0.04 0,0.04 0,0.04 0,0.03 0,0.04 -0.01,0.03 0,0.03 0,0.04 0,0.03 -0.01,0.02 0,0.03 0,0.03 -0.01,0.03 0,0.02 0,0.02 -0.02,0.05 -0.01,0.04 -0.01,0.04 -0.02,0.03 -0.02,0.03 -0.02,0.03 -0.03,0.03 -0.02,0.02 -0.03,0.02 -0.04,0.02 -0.03,0.01 -0.04,0.01 -0.05,0.02 -0.05,0 -0.02,0.01 -0.03,0 -0.03,0.01 -0.02,0 -0.03,0 -0.03,0 -0.04,0 -0.03,0.01 -0.03,0 -0.04,0 -0.03,0 -0.04,0 -0.04,0 -0.04,0 -0.04,0 -0.04,0 -0.05,0 -0.04,0 c -2.24,-2.19 -5.41,-2.23 -6.84,-2.23 l 0,-1.25 c 0.84,0 3.14,0 5.06,0.97 l 0,-17.78 c 0,-1.15 0,-1.61 -3.49,-1.61 l -1.33,0 0,-1.25 12.45,0 0,1.25 -1.32,0 c -3.49,0 -3.49,0.46 -3.49,1.61 z"
           id="path5800"
           inkscape:connector-curvature="0"
           style="fill:#000000;stroke-width:0" /></g>    </g>
    <g
       id="g5802"
       transform="matrix(0.5938712,0,0,0.5938712,261.26392,100.05799)">
      <g
         word-spacing="normal"
         letter-spacing="normal"
         font-size-adjust="none"
         font-stretch="normal"
         font-weight="normal"
         font-variant="normal"
         font-style="normal"
         stroke-miterlimit="10.433"
         xml:space="preserve"
         transform="matrix(1.0629921,0,0,-1.0629921,-186.02362,789.27165)"
         id="g5804"
         style="font-style:normal;font-variant:normal;font-weight:normal;font-stretch:normal;letter-spacing:normal;word-spacing:normal;text-anchor:start;fill:none;fill-opacity:1;fill-rule:evenodd;stroke:#000000;stroke-linecap:butt;stroke-linejoin:miter;stroke-miterlimit:10.43299961;stroke-dasharray:none;stroke-dashoffset:0;stroke-opacity:1"><path
           id="path5806"
           d="m 472.64,421.04 0.03,0.13 0.03,0.15 0.05,0.17 0.04,0.18 0.06,0.19 0.06,0.21 0.06,0.21 0.07,0.23 0.08,0.23 0.09,0.24 0.1,0.25 0.1,0.24 0.11,0.25 0.12,0.25 0.13,0.25 0.14,0.25 0.15,0.24 0.15,0.24 0.17,0.23 0.18,0.22 0.18,0.22 0.2,0.2 0.21,0.19 0.22,0.18 0.23,0.16 0.25,0.14 0.12,0.07 0.13,0.06 0.13,0.05 0.14,0.05 0.14,0.05 0.14,0.04 0.14,0.03 0.15,0.03 0.15,0.02 0.16,0.02 0.16,0.01 0.16,0 c 0.25,0 1.45,0 2.49,-0.65 -1.4,-0.25 -2.39,-1.49 -2.39,-2.68 0,-0.8 0.54,-1.75 1.89,-1.75 1.1,0 2.69,0.9 2.69,2.89 0,2.59 -2.94,3.29 -4.63,3.29 -2.89,0 -4.64,-2.64 -5.23,-3.79 -1.25,3.29 -3.94,3.79 -5.38,3.79 -5.18,0 -8.02,-6.43 -8.02,-7.67 0,-0.5 0.5,-0.5 0.6,-0.5 0.39,0 0.54,0.1 0.64,0.54 1.7,5.29 4.98,6.53 6.68,6.53 0.95,0 2.69,-0.45 2.69,-3.33 0,-1.55 -0.85,-4.89 -2.69,-11.86 -0.8,-3.09 -2.54,-5.18 -4.73,-5.18 -0.3,0 -1.45,0 -2.49,0.65 1.24,0.25 2.34,1.29 2.34,2.69 0,1.34 -1.1,1.74 -1.85,1.74 -1.49,0 -2.73,-1.3 -2.73,-2.89 0,-2.29 2.48,-3.29 4.68,-3.29 3.28,0 5.08,3.49 5.23,3.79 0.6,-1.85 2.39,-3.79 5.38,-3.79 5.13,0 7.97,6.43 7.97,7.67 0,0.5 -0.45,0.5 -0.6,0.5 -0.45,0 -0.55,-0.2 -0.65,-0.55 -1.64,-5.33 -5.03,-6.52 -6.62,-6.52 -1.95,0 -2.74,1.59 -2.74,3.29 0,1.09 0.29,2.19 0.85,4.38 z"
           inkscape:connector-curvature="0"
           style="fill:#000000;stroke-width:0" /><path
           id="path5808"
           d="m 501.61,405.35 -1.19,0 c -0.1,-0.77 -0.45,-2.83 -0.9,-3.18 -0.28,-0.21 -2.97,-0.21 -3.45,-0.21 l -6.42,0 c 3.66,3.25 4.88,4.22 6.97,5.86 2.58,2.06 4.99,4.22 4.99,7.54 0,4.21 -3.7,6.79 -8.16,6.79 -4.33,0 -7.25,-3.03 -7.25,-6.24 0,-1.78 1.5,-1.95 1.84,-1.95 0.84,0 1.85,0.59 1.85,1.85 0,0.62 -0.24,1.85 -2.05,1.85 1.08,2.47 3.45,3.24 5.09,3.24 3.48,0 5.3,-2.72 5.3,-5.54 0,-3.04 -2.16,-5.45 -3.28,-6.7 l -8.4,-8.3 c -0.35,-0.31 -0.35,-0.38 -0.35,-1.36 l 14.36,0 z"
           inkscape:connector-curvature="0"
           style="fill:#000000;stroke-width:0" /></g>    </g>
    <circle
       style="fill:#ffffff;fill-rule:evenodd;stroke:#000000;stroke-width:1px;stroke-linecap:butt;stroke-linejoin:miter;stroke-opacity:1"
       id="circle5814"
       cx="186.96559"
       cy="306.18997"
       r="17.67767" />
    <circle
       r="17.67767"
       cy="306.18997"
       cx="186.96559"
       id="circle5816"
       style="fill:#ffffff;fill-rule:evenodd;stroke:#000000;stroke-width:1px;stroke-linecap:butt;stroke-linejoin:miter;stroke-opacity:1" />
    <g
       id="g5818"
       transform="matrix(0.5938712,0,0,0.5938712,-5.7084273,98.030349)">
      <g
         id="g5820"
         transform="matrix(1.0629921,0,0,-1.0629921,-186.02362,789.27165)"
         xml:space="preserve"
         stroke-miterlimit="10.433"
         font-style="normal"
         font-variant="normal"
         font-weight="normal"
         font-stretch="normal"
         font-size-adjust="none"
         letter-spacing="normal"
         word-spacing="normal"
         style="font-style:normal;font-variant:normal;font-weight:normal;font-stretch:normal;letter-spacing:normal;word-spacing:normal;text-anchor:start;fill:none;fill-opacity:1;fill-rule:evenodd;stroke:#000000;stroke-linecap:butt;stroke-linejoin:miter;stroke-miterlimit:10.43299961;stroke-dasharray:none;stroke-dashoffset:0;stroke-opacity:1"><path
           d="m 472.64,421.04 0.03,0.13 0.03,0.15 0.05,0.17 0.04,0.18 0.06,0.19 0.06,0.21 0.06,0.21 0.07,0.23 0.08,0.23 0.09,0.24 0.1,0.25 0.1,0.24 0.11,0.25 0.12,0.25 0.13,0.25 0.14,0.25 0.15,0.24 0.15,0.24 0.17,0.23 0.18,0.22 0.18,0.22 0.2,0.2 0.21,0.19 0.22,0.18 0.23,0.16 0.25,0.14 0.12,0.07 0.13,0.06 0.13,0.05 0.14,0.05 0.14,0.05 0.14,0.04 0.14,0.03 0.15,0.03 0.15,0.02 0.16,0.02 0.16,0.01 0.16,0 c 0.25,0 1.45,0 2.49,-0.65 -1.4,-0.25 -2.39,-1.49 -2.39,-2.68 0,-0.8 0.54,-1.75 1.89,-1.75 1.1,0 2.69,0.9 2.69,2.89 0,2.59 -2.94,3.29 -4.63,3.29 -2.89,0 -4.64,-2.64 -5.23,-3.79 -1.25,3.29 -3.94,3.79 -5.38,3.79 -5.18,0 -8.02,-6.43 -8.02,-7.67 0,-0.5 0.5,-0.5 0.6,-0.5 0.39,0 0.54,0.1 0.64,0.54 1.7,5.29 4.98,6.53 6.68,6.53 0.95,0 2.69,-0.45 2.69,-3.33 0,-1.55 -0.85,-4.89 -2.69,-11.86 -0.8,-3.09 -2.54,-5.18 -4.73,-5.18 -0.3,0 -1.45,0 -2.49,0.65 1.24,0.25 2.34,1.29 2.34,2.69 0,1.34 -1.1,1.74 -1.85,1.74 -1.49,0 -2.73,-1.3 -2.73,-2.89 0,-2.29 2.48,-3.29 4.68,-3.29 3.28,0 5.08,3.49 5.23,3.79 0.6,-1.85 2.39,-3.79 5.38,-3.79 5.13,0 7.97,6.43 7.97,7.67 0,0.5 -0.45,0.5 -0.6,0.5 -0.45,0 -0.55,-0.2 -0.65,-0.55 -1.64,-5.33 -5.03,-6.52 -6.62,-6.52 -1.95,0 -2.74,1.59 -2.74,3.29 0,1.09 0.29,2.19 0.85,4.38 z"
           id="path5822"
           inkscape:connector-curvature="0"
           style="fill:#000000;stroke-width:0" /><path
           d="m 495.68,421.18 0,0.04 0,0.04 0,0.04 0,0.04 0,0.04 0,0.04 0,0.03 0,0.04 -0.01,0.03 0,0.03 0,0.04 0,0.03 -0.01,0.02 0,0.03 0,0.03 -0.01,0.03 0,0.02 0,0.02 -0.02,0.05 -0.01,0.04 -0.01,0.04 -0.02,0.03 -0.02,0.03 -0.02,0.03 -0.03,0.03 -0.02,0.02 -0.03,0.02 -0.04,0.02 -0.03,0.01 -0.04,0.01 -0.05,0.02 -0.05,0 -0.02,0.01 -0.03,0 -0.03,0.01 -0.02,0 -0.03,0 -0.03,0 -0.04,0 -0.03,0.01 -0.03,0 -0.04,0 -0.03,0 -0.04,0 -0.04,0 -0.04,0 -0.04,0 -0.04,0 -0.05,0 -0.04,0 c -2.24,-2.19 -5.41,-2.23 -6.84,-2.23 l 0,-1.25 c 0.84,0 3.14,0 5.06,0.97 l 0,-17.78 c 0,-1.15 0,-1.61 -3.49,-1.61 l -1.33,0 0,-1.25 12.45,0 0,1.25 -1.32,0 c -3.49,0 -3.49,0.46 -3.49,1.61 z"
           id="path5824"
           inkscape:connector-curvature="0"
           style="fill:#000000;stroke-width:0" /></g>    </g>
    <circle
       r="17.67767"
       cy="306.18997"
       cx="186.96559"
       id="circle5826"
       style="fill:#ffffff;fill-rule:evenodd;stroke:#000000;stroke-width:1px;stroke-linecap:butt;stroke-linejoin:miter;stroke-opacity:1" />
    <circle
       style="fill:#ffffff;fill-rule:evenodd;stroke:#000000;stroke-width:1px;stroke-linecap:butt;stroke-linejoin:miter;stroke-opacity:1"
       id="circle5828"
       cx="186.96559"
       cy="306.18997"
       r="17.67767" />
    <g
       transform="matrix(0.5938712,0,0,0.5938712,24.291571,98.030349)"
       id="g5830">
      <g
         transform="translate(-49.831266,1.4089862)"
         id="g5832">
        <g
           style="font-style:normal;font-variant:normal;font-weight:normal;font-stretch:normal;letter-spacing:normal;word-spacing:normal;text-anchor:start;fill:none;fill-opacity:1;fill-rule:evenodd;stroke:#000000;stroke-linecap:butt;stroke-linejoin:miter;stroke-miterlimit:10.43299961;stroke-dasharray:none;stroke-dashoffset:0;stroke-opacity:1"
           word-spacing="normal"
           letter-spacing="normal"
           font-size-adjust="none"
           font-stretch="normal"
           font-weight="normal"
           font-variant="normal"
           font-style="normal"
           stroke-miterlimit="10.433"
           xml:space="preserve"
           transform="matrix(1.0629921,0,0,-1.0629921,-186.02362,789.27165)"
           id="g5834"><path
             style="fill:#000000;stroke-width:0"
             inkscape:connector-curvature="0"
             id="path5836"
             d="m 472.64,421.04 0.03,0.13 0.03,0.15 0.05,0.17 0.04,0.18 0.06,0.19 0.06,0.21 0.06,0.21 0.07,0.23 0.08,0.23 0.09,0.24 0.1,0.25 0.1,0.24 0.11,0.25 0.12,0.25 0.13,0.25 0.14,0.25 0.15,0.24 0.15,0.24 0.17,0.23 0.18,0.22 0.18,0.22 0.2,0.2 0.21,0.19 0.22,0.18 0.23,0.16 0.25,0.14 0.12,0.07 0.13,0.06 0.13,0.05 0.14,0.05 0.14,0.05 0.14,0.04 0.14,0.03 0.15,0.03 0.15,0.02 0.16,0.02 0.16,0.01 0.16,0 c 0.25,0 1.45,0 2.49,-0.65 -1.4,-0.25 -2.39,-1.49 -2.39,-2.68 0,-0.8 0.54,-1.75 1.89,-1.75 1.1,0 2.69,0.9 2.69,2.89 0,2.59 -2.94,3.29 -4.63,3.29 -2.89,0 -4.64,-2.64 -5.23,-3.79 -1.25,3.29 -3.94,3.79 -5.38,3.79 -5.18,0 -8.02,-6.43 -8.02,-7.67 0,-0.5 0.5,-0.5 0.6,-0.5 0.39,0 0.54,0.1 0.64,0.54 1.7,5.29 4.98,6.53 6.68,6.53 0.95,0 2.69,-0.45 2.69,-3.33 0,-1.55 -0.85,-4.89 -2.69,-11.86 -0.8,-3.09 -2.54,-5.18 -4.73,-5.18 -0.3,0 -1.45,0 -2.49,0.65 1.24,0.25 2.34,1.29 2.34,2.69 0,1.34 -1.1,1.74 -1.85,1.74 -1.49,0 -2.73,-1.3 -2.73,-2.89 0,-2.29 2.48,-3.29 4.68,-3.29 3.28,0 5.08,3.49 5.23,3.79 0.6,-1.85 2.39,-3.79 5.38,-3.79 5.13,0 7.97,6.43 7.97,7.67 0,0.5 -0.45,0.5 -0.6,0.5 -0.45,0 -0.55,-0.2 -0.65,-0.55 -1.64,-5.33 -5.03,-6.52 -6.62,-6.52 -1.95,0 -2.74,1.59 -2.74,3.29 0,1.09 0.29,2.19 0.85,4.38 z" /><path
             style="fill:#000000;stroke-width:0"
             inkscape:connector-curvature="0"
             id="path5838"
             d="m 501.99,410.12 0,0.71 -0.02,0.68 -0.03,0.66 -0.04,0.64 -0.06,0.62 -0.08,0.59 -0.09,0.58 -0.11,0.56 -0.12,0.55 -0.15,0.53 -0.17,0.51 -0.19,0.5 -0.21,0.49 -0.24,0.48 -0.26,0.47 -0.14,0.24 -0.15,0.23 c -1.07,1.6 -3.24,2.99 -6.03,2.99 l 0,-0.97 c 1.89,0 3.7,-1.15 4.33,-3.18 0.56,-1.88 0.59,-4.39 0.59,-7.42 0,-2.58 0,-5.17 -0.45,-7.36 -0.7,-3.17 -3.07,-3.94 -4.47,-3.94 l 0,0 c -1.6,0 -3.73,0.94 -4.43,3.8 -0.49,2.06 -0.49,4.92 -0.49,7.5 0,2.54 0,5.19 0.53,7.11 0.73,2.76 2.96,3.49 4.39,3.49 l 0,0.97 c -8.09,0 -8.09,-9.52 -8.09,-12.03 0,-2.51 0,-11.82 8.09,-11.82 8.09,0 8.09,9.31 8.09,11.82 z" /></g>      </g>
    </g>
    <path
       style="fill:none;fill-rule:evenodd;stroke:#000000;stroke-width:1.63507974px;stroke-linecap:butt;stroke-linejoin:miter;stroke-opacity:1"
       d="m 204.41557,308.00842 74.87393,0"
       id="path5840"
       inkscape:connector-curvature="0"
       sodipodi:nodetypes="cc" />
    <g
       transform="matrix(0.63904601,0,0,0.63904601,422.20745,28.560189)"
       id="g5842">
      <g
         style="font-style:normal;font-variant:normal;font-weight:normal;font-stretch:normal;letter-spacing:normal;word-spacing:normal;text-anchor:start;fill:none;fill-opacity:1;fill-rule:evenodd;stroke:#000000;stroke-linecap:butt;stroke-linejoin:miter;stroke-miterlimit:10.43299961;stroke-dasharray:none;stroke-dashoffset:0;stroke-opacity:1"
         id="g5844"
         transform="matrix(1.0629921,0,0,-1.0629921,-186.02362,789.27165)"
         xml:space="preserve"
         stroke-miterlimit="10.433"
         font-style="normal"
         font-variant="normal"
         font-weight="normal"
         font-stretch="normal"
         font-size-adjust="none"
         letter-spacing="normal"
         word-spacing="normal"><path
           style="fill:#000000;stroke-width:0"
           inkscape:connector-curvature="0"
           d="m 472.64,421.04 0.03,0.13 0.03,0.15 0.05,0.17 0.04,0.18 0.06,0.19 0.06,0.21 0.06,0.21 0.07,0.23 0.08,0.23 0.09,0.24 0.1,0.25 0.1,0.24 0.11,0.25 0.12,0.25 0.13,0.25 0.14,0.25 0.15,0.24 0.15,0.24 0.17,0.23 0.18,0.22 0.18,0.22 0.2,0.2 0.21,0.19 0.22,0.18 0.23,0.16 0.25,0.14 0.12,0.07 0.13,0.06 0.13,0.05 0.14,0.05 0.14,0.05 0.14,0.04 0.14,0.03 0.15,0.03 0.15,0.02 0.16,0.02 0.16,0.01 0.16,0 c 0.25,0 1.45,0 2.49,-0.65 -1.4,-0.25 -2.39,-1.49 -2.39,-2.68 0,-0.8 0.54,-1.75 1.89,-1.75 1.1,0 2.69,0.9 2.69,2.89 0,2.59 -2.94,3.29 -4.63,3.29 -2.89,0 -4.64,-2.64 -5.23,-3.79 -1.25,3.29 -3.94,3.79 -5.38,3.79 -5.18,0 -8.02,-6.43 -8.02,-7.67 0,-0.5 0.5,-0.5 0.6,-0.5 0.39,0 0.54,0.1 0.64,0.54 1.7,5.29 4.98,6.53 6.68,6.53 0.95,0 2.69,-0.45 2.69,-3.33 0,-1.55 -0.85,-4.89 -2.69,-11.86 -0.8,-3.09 -2.54,-5.18 -4.73,-5.18 -0.3,0 -1.45,0 -2.49,0.65 1.24,0.25 2.34,1.29 2.34,2.69 0,1.34 -1.1,1.74 -1.85,1.74 -1.49,0 -2.73,-1.3 -2.73,-2.89 0,-2.29 2.48,-3.29 4.68,-3.29 3.28,0 5.08,3.49 5.23,3.79 0.6,-1.85 2.39,-3.79 5.38,-3.79 5.13,0 7.97,6.43 7.97,7.67 0,0.5 -0.45,0.5 -0.6,0.5 -0.45,0 -0.55,-0.2 -0.65,-0.55 -1.64,-5.33 -5.03,-6.52 -6.62,-6.52 -1.95,0 -2.74,1.59 -2.74,3.29 0,1.09 0.29,2.19 0.85,4.38 z"
           id="path5846" /><path
           style="fill:#000000;stroke-width:0"
           inkscape:connector-curvature="0"
           d="m 489.41,418.46 0.16,-0.04 0.16,-0.04 0.16,-0.04 0.15,-0.03 0.15,-0.03 0.14,-0.03 0.14,-0.03 0.14,-0.02 0.13,-0.03 0.13,-0.02 0.12,-0.02 0.12,-0.02 0.12,-0.01 0.11,-0.02 0.11,-0.01 0.1,-0.01 0.11,-0.01 0.09,-0.01 0.1,-0.01 0.09,0 0.09,-0.01 0.08,0 0.08,-0.01 0.08,0 0.08,0 0.07,0 0.07,0 0.06,-0.01 0.07,0 0.06,0 0.05,0 0.06,0 c 4.6,0 7.32,3.14 7.32,3.66 0,0.39 -0.24,0.49 -0.42,0.49 -0.07,0 -0.14,0 -0.28,-0.1 -0.84,-0.32 -2.68,-1.01 -5.26,-1.01 -0.98,0 -2.83,0.07 -5.1,0.94 -0.34,0.17 -0.41,0.17 -0.45,0.17 -0.45,0 -0.45,-0.38 -0.45,-0.94 l 0,-10.28 c 0,-0.6 0,-1.02 0.56,-1.02 0.31,0 0.34,0.07 0.7,0.49 1.49,1.92 3.62,2.2 4.84,2.2 2.09,0 3.04,-1.67 3.21,-1.96 0.63,-1.14 0.84,-2.47 0.84,-4.49 0,-1.05 0,-3.11 -1.05,-4.64 -0.87,-1.26 -2.37,-2.09 -4.08,-2.09 -2.27,0 -4.6,1.25 -5.47,3.56 1.32,-0.11 1.98,0.76 1.98,1.7 0,1.5 -1.29,1.78 -1.74,1.78 -0.07,0 -1.74,0 -1.74,-1.88 0,-3.14 2.85,-6.28 7.04,-6.28 4.46,0 8.37,3.31 8.37,7.71 0,3.94 -3,7.56 -7.32,7.56 -1.54,0 -3.35,-0.38 -4.88,-1.7 z"
           id="path5848" /></g>    </g>
    <circle
       style="fill:#ffffff;fill-rule:evenodd;stroke:#000000;stroke-width:1px;stroke-linecap:butt;stroke-linejoin:miter;stroke-opacity:1"
       id="circle5850"
       cx="299.08078"
       cy="374.48489"
       r="17.67767" />
    <circle
       r="17.67767"
       cy="374.48489"
       cx="299.08078"
       id="circle5852"
       style="fill:#ffffff;fill-rule:evenodd;stroke:#000000;stroke-width:1px;stroke-linecap:butt;stroke-linejoin:miter;stroke-opacity:1" />
    <circle
       style="fill:#ffffff;fill-rule:evenodd;stroke:#000000;stroke-width:1px;stroke-linecap:butt;stroke-linejoin:miter;stroke-opacity:1"
       id="circle5854"
       cx="454.64426"
       cy="374.48489"
       r="17.67767" />
    <path
       style="fill:none;fill-rule:evenodd;stroke:#000000;stroke-width:1.63507974px;stroke-linecap:butt;stroke-linejoin:miter;stroke-opacity:1"
       d="m 314.73815,374.98999 121.52831,0"
       id="path5856"
       inkscape:connector-curvature="0" />
    <g
       id="g5858"
       transform="matrix(0.5938712,0,0,0.5938712,106.40678,166.32528)">
      <g
         id="g5860"
         transform="matrix(1.0629921,0,0,-1.0629921,-186.02362,789.27165)"
         xml:space="preserve"
         stroke-miterlimit="10.433"
         font-style="normal"
         font-variant="normal"
         font-weight="normal"
         font-stretch="normal"
         font-size-adjust="none"
         letter-spacing="normal"
         word-spacing="normal"
         style="font-style:normal;font-variant:normal;font-weight:normal;font-stretch:normal;letter-spacing:normal;word-spacing:normal;text-anchor:start;fill:none;fill-opacity:1;fill-rule:evenodd;stroke:#000000;stroke-linecap:butt;stroke-linejoin:miter;stroke-miterlimit:10.43299961;stroke-dasharray:none;stroke-dashoffset:0;stroke-opacity:1"><path
           d="m 472.64,421.04 0.03,0.13 0.03,0.15 0.05,0.17 0.04,0.18 0.06,0.19 0.06,0.21 0.06,0.21 0.07,0.23 0.08,0.23 0.09,0.24 0.1,0.25 0.1,0.24 0.11,0.25 0.12,0.25 0.13,0.25 0.14,0.25 0.15,0.24 0.15,0.24 0.17,0.23 0.18,0.22 0.18,0.22 0.2,0.2 0.21,0.19 0.22,0.18 0.23,0.16 0.25,0.14 0.12,0.07 0.13,0.06 0.13,0.05 0.14,0.05 0.14,0.05 0.14,0.04 0.14,0.03 0.15,0.03 0.15,0.02 0.16,0.02 0.16,0.01 0.16,0 c 0.25,0 1.45,0 2.49,-0.65 -1.4,-0.25 -2.39,-1.49 -2.39,-2.68 0,-0.8 0.54,-1.75 1.89,-1.75 1.1,0 2.69,0.9 2.69,2.89 0,2.59 -2.94,3.29 -4.63,3.29 -2.89,0 -4.64,-2.64 -5.23,-3.79 -1.25,3.29 -3.94,3.79 -5.38,3.79 -5.18,0 -8.02,-6.43 -8.02,-7.67 0,-0.5 0.5,-0.5 0.6,-0.5 0.39,0 0.54,0.1 0.64,0.54 1.7,5.29 4.98,6.53 6.68,6.53 0.95,0 2.69,-0.45 2.69,-3.33 0,-1.55 -0.85,-4.89 -2.69,-11.86 -0.8,-3.09 -2.54,-5.18 -4.73,-5.18 -0.3,0 -1.45,0 -2.49,0.65 1.24,0.25 2.34,1.29 2.34,2.69 0,1.34 -1.1,1.74 -1.85,1.74 -1.49,0 -2.73,-1.3 -2.73,-2.89 0,-2.29 2.48,-3.29 4.68,-3.29 3.28,0 5.08,3.49 5.23,3.79 0.6,-1.85 2.39,-3.79 5.38,-3.79 5.13,0 7.97,6.43 7.97,7.67 0,0.5 -0.45,0.5 -0.6,0.5 -0.45,0 -0.55,-0.2 -0.65,-0.55 -1.64,-5.33 -5.03,-6.52 -6.62,-6.52 -1.95,0 -2.74,1.59 -2.74,3.29 0,1.09 0.29,2.19 0.85,4.38 z"
           id="path5862"
           inkscape:connector-curvature="0"
           style="fill:#000000;stroke-width:0" /><path
           d="m 495.68,421.18 0,0.04 0,0.04 0,0.04 0,0.04 0,0.04 0,0.04 0,0.03 0,0.04 -0.01,0.03 0,0.03 0,0.04 0,0.03 -0.01,0.02 0,0.03 0,0.03 -0.01,0.03 0,0.02 0,0.02 -0.02,0.05 -0.01,0.04 -0.01,0.04 -0.02,0.03 -0.02,0.03 -0.02,0.03 -0.03,0.03 -0.02,0.02 -0.03,0.02 -0.04,0.02 -0.03,0.01 -0.04,0.01 -0.05,0.02 -0.05,0 -0.02,0.01 -0.03,0 -0.03,0.01 -0.02,0 -0.03,0 -0.03,0 -0.04,0 -0.03,0.01 -0.03,0 -0.04,0 -0.03,0 -0.04,0 -0.04,0 -0.04,0 -0.04,0 -0.04,0 -0.05,0 -0.04,0 c -2.24,-2.19 -5.41,-2.23 -6.84,-2.23 l 0,-1.25 c 0.84,0 3.14,0 5.06,0.97 l 0,-17.78 c 0,-1.15 0,-1.61 -3.49,-1.61 l -1.33,0 0,-1.25 12.45,0 0,1.25 -1.32,0 c -3.49,0 -3.49,0.46 -3.49,1.61 z"
           id="path5864"
           inkscape:connector-curvature="0"
           style="fill:#000000;stroke-width:0" /></g>    </g>
    <g
       id="g5866"
       transform="matrix(0.5938712,0,0,0.5938712,261.26392,167.03956)">
      <g
         word-spacing="normal"
         letter-spacing="normal"
         font-size-adjust="none"
         font-stretch="normal"
         font-weight="normal"
         font-variant="normal"
         font-style="normal"
         stroke-miterlimit="10.433"
         xml:space="preserve"
         transform="matrix(1.0629921,0,0,-1.0629921,-186.02362,789.27165)"
         id="g5868"
         style="font-style:normal;font-variant:normal;font-weight:normal;font-stretch:normal;letter-spacing:normal;word-spacing:normal;text-anchor:start;fill:none;fill-opacity:1;fill-rule:evenodd;stroke:#000000;stroke-linecap:butt;stroke-linejoin:miter;stroke-miterlimit:10.43299961;stroke-dasharray:none;stroke-dashoffset:0;stroke-opacity:1"><path
           id="path5870"
           d="m 472.64,421.04 0.03,0.13 0.03,0.15 0.05,0.17 0.04,0.18 0.06,0.19 0.06,0.21 0.06,0.21 0.07,0.23 0.08,0.23 0.09,0.24 0.1,0.25 0.1,0.24 0.11,0.25 0.12,0.25 0.13,0.25 0.14,0.25 0.15,0.24 0.15,0.24 0.17,0.23 0.18,0.22 0.18,0.22 0.2,0.2 0.21,0.19 0.22,0.18 0.23,0.16 0.25,0.14 0.12,0.07 0.13,0.06 0.13,0.05 0.14,0.05 0.14,0.05 0.14,0.04 0.14,0.03 0.15,0.03 0.15,0.02 0.16,0.02 0.16,0.01 0.16,0 c 0.25,0 1.45,0 2.49,-0.65 -1.4,-0.25 -2.39,-1.49 -2.39,-2.68 0,-0.8 0.54,-1.75 1.89,-1.75 1.1,0 2.69,0.9 2.69,2.89 0,2.59 -2.94,3.29 -4.63,3.29 -2.89,0 -4.64,-2.64 -5.23,-3.79 -1.25,3.29 -3.94,3.79 -5.38,3.79 -5.18,0 -8.02,-6.43 -8.02,-7.67 0,-0.5 0.5,-0.5 0.6,-0.5 0.39,0 0.54,0.1 0.64,0.54 1.7,5.29 4.98,6.53 6.68,6.53 0.95,0 2.69,-0.45 2.69,-3.33 0,-1.55 -0.85,-4.89 -2.69,-11.86 -0.8,-3.09 -2.54,-5.18 -4.73,-5.18 -0.3,0 -1.45,0 -2.49,0.65 1.24,0.25 2.34,1.29 2.34,2.69 0,1.34 -1.1,1.74 -1.85,1.74 -1.49,0 -2.73,-1.3 -2.73,-2.89 0,-2.29 2.48,-3.29 4.68,-3.29 3.28,0 5.08,3.49 5.23,3.79 0.6,-1.85 2.39,-3.79 5.38,-3.79 5.13,0 7.97,6.43 7.97,7.67 0,0.5 -0.45,0.5 -0.6,0.5 -0.45,0 -0.55,-0.2 -0.65,-0.55 -1.64,-5.33 -5.03,-6.52 -6.62,-6.52 -1.95,0 -2.74,1.59 -2.74,3.29 0,1.09 0.29,2.19 0.85,4.38 z"
           inkscape:connector-curvature="0"
           style="fill:#000000;stroke-width:0" /><path
           id="path5872"
           d="m 501.61,405.35 -1.19,0 c -0.1,-0.77 -0.45,-2.83 -0.9,-3.18 -0.28,-0.21 -2.97,-0.21 -3.45,-0.21 l -6.42,0 c 3.66,3.25 4.88,4.22 6.97,5.86 2.58,2.06 4.99,4.22 4.99,7.54 0,4.21 -3.7,6.79 -8.16,6.79 -4.33,0 -7.25,-3.03 -7.25,-6.24 0,-1.78 1.5,-1.95 1.84,-1.95 0.84,0 1.85,0.59 1.85,1.85 0,0.62 -0.24,1.85 -2.05,1.85 1.08,2.47 3.45,3.24 5.09,3.24 3.48,0 5.3,-2.72 5.3,-5.54 0,-3.04 -2.16,-5.45 -3.28,-6.7 l -8.4,-8.3 c -0.35,-0.31 -0.35,-0.38 -0.35,-1.36 l 14.36,0 z"
           inkscape:connector-curvature="0"
           style="fill:#000000;stroke-width:0" /></g>    </g>
    <circle
       r="17.67767"
       cy="374.48489"
       cx="299.08078"
       id="circle5874"
       style="fill:#ffffff;fill-rule:evenodd;stroke:#000000;stroke-width:1px;stroke-linecap:butt;stroke-linejoin:miter;stroke-opacity:1" />
    <circle
       style="fill:#ffffff;fill-rule:evenodd;stroke:#000000;stroke-width:1px;stroke-linecap:butt;stroke-linejoin:miter;stroke-opacity:1"
       id="circle5876"
       cx="299.08078"
       cy="374.48489"
       r="17.67767" />
    <circle
       r="17.67767"
       cy="374.48489"
       cx="454.64426"
       id="circle5878"
       style="fill:#ffffff;fill-rule:evenodd;stroke:#000000;stroke-width:1px;stroke-linecap:butt;stroke-linejoin:miter;stroke-opacity:1" />
    <g
       transform="matrix(0.59740361,0,0,0.59740361,105.63183,165.34632)"
       id="g5880">
      <g
         style="font-style:normal;font-variant:normal;font-weight:normal;font-stretch:normal;letter-spacing:normal;word-spacing:normal;text-anchor:start;fill:none;fill-opacity:1;fill-rule:evenodd;stroke:#000000;stroke-linecap:butt;stroke-linejoin:miter;stroke-miterlimit:10.43299961;stroke-dasharray:none;stroke-dashoffset:0;stroke-opacity:1"
         word-spacing="normal"
         letter-spacing="normal"
         font-size-adjust="none"
         font-stretch="normal"
         font-weight="normal"
         font-variant="normal"
         font-style="normal"
         stroke-miterlimit="10.433"
         xml:space="preserve"
         transform="matrix(1.0629921,0,0,-1.0629921,-186.02362,789.27165)"
         id="g5882"><path
           style="fill:#000000;stroke-width:0"
           inkscape:connector-curvature="0"
           id="path5884"
           d="m 472.64,421.04 0.03,0.13 0.03,0.15 0.05,0.17 0.04,0.18 0.06,0.19 0.06,0.21 0.06,0.21 0.07,0.23 0.08,0.23 0.09,0.24 0.1,0.25 0.1,0.24 0.11,0.25 0.12,0.25 0.13,0.25 0.14,0.25 0.15,0.24 0.15,0.24 0.17,0.23 0.18,0.22 0.18,0.22 0.2,0.2 0.21,0.19 0.22,0.18 0.23,0.16 0.25,0.14 0.12,0.07 0.13,0.06 0.13,0.05 0.14,0.05 0.14,0.05 0.14,0.04 0.14,0.03 0.15,0.03 0.15,0.02 0.16,0.02 0.16,0.01 0.16,0 c 0.25,0 1.45,0 2.49,-0.65 -1.4,-0.25 -2.39,-1.49 -2.39,-2.68 0,-0.8 0.54,-1.75 1.89,-1.75 1.1,0 2.69,0.9 2.69,2.89 0,2.59 -2.94,3.29 -4.63,3.29 -2.89,0 -4.64,-2.64 -5.23,-3.79 -1.25,3.29 -3.94,3.79 -5.38,3.79 -5.18,0 -8.02,-6.43 -8.02,-7.67 0,-0.5 0.5,-0.5 0.6,-0.5 0.39,0 0.54,0.1 0.64,0.54 1.7,5.29 4.98,6.53 6.68,6.53 0.95,0 2.69,-0.45 2.69,-3.33 0,-1.55 -0.85,-4.89 -2.69,-11.86 -0.8,-3.09 -2.54,-5.18 -4.73,-5.18 -0.3,0 -1.45,0 -2.49,0.65 1.24,0.25 2.34,1.29 2.34,2.69 0,1.34 -1.1,1.74 -1.85,1.74 -1.49,0 -2.73,-1.3 -2.73,-2.89 0,-2.29 2.48,-3.29 4.68,-3.29 3.28,0 5.08,3.49 5.23,3.79 0.6,-1.85 2.39,-3.79 5.38,-3.79 5.13,0 7.97,6.43 7.97,7.67 0,0.5 -0.45,0.5 -0.6,0.5 -0.45,0 -0.55,-0.2 -0.65,-0.55 -1.64,-5.33 -5.03,-6.52 -6.62,-6.52 -1.95,0 -2.74,1.59 -2.74,3.29 0,1.09 0.29,2.19 0.85,4.38 z" /><path
           style="fill:#000000;stroke-width:0"
           inkscape:connector-curvature="0"
           id="path5886"
           d="m 493.52,410.64 0.25,0 0.25,-0.02 0.24,-0.02 0.24,-0.04 0.23,-0.05 0.23,-0.06 0.22,-0.07 0.22,-0.09 0.21,-0.09 0.2,-0.11 0.19,-0.11 0.19,-0.13 0.18,-0.13 0.18,-0.15 0.17,-0.16 0.15,-0.17 0.16,-0.18 0.14,-0.2 0.13,-0.2 0.13,-0.21 0.12,-0.23 0.11,-0.23 0.09,-0.25 0.09,-0.26 0.08,-0.27 0.07,-0.28 0.06,-0.29 0.05,-0.3 0.04,-0.31 0.03,-0.32 0.02,-0.33 0,-0.35 c 0,-4.32 -2.51,-5.61 -4.53,-5.61 -1.39,0 -4.46,0.38 -5.93,2.44 1.64,0.07 2.02,1.22 2.02,1.95 0,1.12 -0.83,1.92 -1.91,1.92 -0.98,0 -1.96,-0.59 -1.96,-2.02 0,-3.28 3.63,-5.41 7.85,-5.41 4.84,0 8.19,3.25 8.19,6.73 0,2.72 -2.23,5.44 -6.06,6.24 3.66,1.33 4.98,3.94 4.98,6.07 0,2.76 -3.17,4.81 -7.04,4.81 -3.87,0 -6.84,-1.88 -6.84,-4.67 0,-1.18 0.77,-1.85 1.82,-1.85 1.08,0 1.77,0.8 1.77,1.78 0,1.01 -0.69,1.75 -1.77,1.81 1.22,1.54 3.62,1.92 4.92,1.92 1.56,0 3.76,-0.76 3.76,-3.8 0,-1.46 -0.49,-3.07 -1.39,-4.15 -1.16,-1.32 -2.13,-1.39 -3.87,-1.5 -0.88,-0.07 -0.95,-0.07 -1.12,-0.1 -0.07,0 -0.35,-0.07 -0.35,-0.46 0,-0.49 0.31,-0.49 0.91,-0.49 z" /></g>    </g>
    <g
       transform="matrix(0.5938712,0,0,0.5938712,260.92752,166.64786)"
       id="g5888">
      <g
         style="font-style:normal;font-variant:normal;font-weight:normal;font-stretch:normal;letter-spacing:normal;word-spacing:normal;text-anchor:start;fill:none;fill-opacity:1;fill-rule:evenodd;stroke:#000000;stroke-linecap:butt;stroke-linejoin:miter;stroke-miterlimit:10.43299961;stroke-dasharray:none;stroke-dashoffset:0;stroke-opacity:1"
         id="g5890"
         transform="matrix(1.0629921,0,0,-1.0629921,-186.02362,789.27165)"
         xml:space="preserve"
         stroke-miterlimit="10.433"
         font-style="normal"
         font-variant="normal"
         font-weight="normal"
         font-stretch="normal"
         font-size-adjust="none"
         letter-spacing="normal"
         word-spacing="normal"><path
           style="fill:#000000;stroke-width:0"
           inkscape:connector-curvature="0"
           d="m 472.64,421.04 0.03,0.13 0.03,0.15 0.05,0.17 0.04,0.18 0.06,0.19 0.06,0.21 0.06,0.21 0.07,0.23 0.08,0.23 0.09,0.24 0.1,0.25 0.1,0.24 0.11,0.25 0.12,0.25 0.13,0.25 0.14,0.25 0.15,0.24 0.15,0.24 0.17,0.23 0.18,0.22 0.18,0.22 0.2,0.2 0.21,0.19 0.22,0.18 0.23,0.16 0.25,0.14 0.12,0.07 0.13,0.06 0.13,0.05 0.14,0.05 0.14,0.05 0.14,0.04 0.14,0.03 0.15,0.03 0.15,0.02 0.16,0.02 0.16,0.01 0.16,0 c 0.25,0 1.45,0 2.49,-0.65 -1.4,-0.25 -2.39,-1.49 -2.39,-2.68 0,-0.8 0.54,-1.75 1.89,-1.75 1.1,0 2.69,0.9 2.69,2.89 0,2.59 -2.94,3.29 -4.63,3.29 -2.89,0 -4.64,-2.64 -5.23,-3.79 -1.25,3.29 -3.94,3.79 -5.38,3.79 -5.18,0 -8.02,-6.43 -8.02,-7.67 0,-0.5 0.5,-0.5 0.6,-0.5 0.39,0 0.54,0.1 0.64,0.54 1.7,5.29 4.98,6.53 6.68,6.53 0.95,0 2.69,-0.45 2.69,-3.33 0,-1.55 -0.85,-4.89 -2.69,-11.86 -0.8,-3.09 -2.54,-5.18 -4.73,-5.18 -0.3,0 -1.45,0 -2.49,0.65 1.24,0.25 2.34,1.29 2.34,2.69 0,1.34 -1.1,1.74 -1.85,1.74 -1.49,0 -2.73,-1.3 -2.73,-2.89 0,-2.29 2.48,-3.29 4.68,-3.29 3.28,0 5.08,3.49 5.23,3.79 0.6,-1.85 2.39,-3.79 5.38,-3.79 5.13,0 7.97,6.43 7.97,7.67 0,0.5 -0.45,0.5 -0.6,0.5 -0.45,0 -0.55,-0.2 -0.65,-0.55 -1.64,-5.33 -5.03,-6.52 -6.62,-6.52 -1.95,0 -2.74,1.59 -2.74,3.29 0,1.09 0.29,2.19 0.85,4.38 z"
           id="path5892" /><path
           style="fill:#000000;stroke-width:0"
           inkscape:connector-curvature="0"
           d="m 502.45,404.72 0,1.25 -3.88,0 0,15.56 c 0,0.73 0,0.97 -0.76,0.97 -0.42,0 -0.56,0 -0.91,-0.49 l -11.54,-16.04 0,-1.25 10.25,0 0.25,1.25 -9.21,0 9.21,12.76 0,-12.76 -0.25,-1.25 0,-2.86 c 0,-1.19 0,-1.61 -2.82,-1.61 l -0.95,0 0,-1.25 10.5,0 0,1.25 -0.94,0 c -2.83,0 -2.83,0.42 -2.83,1.61 l 0,2.86 z"
           id="path5894" /></g>    </g>
    <rect
       y="293.99176"
       x="364.42068"
       height="25.253813"
       width="25.253813"
       id="rect7154"
       style="fill:#280b0b" />
    <rect
       style="fill:#280b0b"
       id="rect7156"
       width="25.253813"
       height="25.253813"
       x="364.42068"
       y="361.99176" />
    <rect
       y="294.13437"
       x="112.97476"
       height="25.253813"
       width="25.253813"
       id="rect7158"
       style="fill:#280b0b" />
    <rect
       y="361.99176"
       x="226.42068"
       height="25.253813"
       width="25.253813"
       id="rect7160"
       style="fill:#280b0b" />
    <rect
       y="240.31058"
       x="527.5769"
       height="25.253813"
       width="25.253813"
       id="rect7162"
       style="fill:#280b0b" />
    <path
       sodipodi:nodetypes="cc"
       style="fill:none;fill-rule:evenodd;stroke:#000000;stroke-width:1.5;stroke-linecap:butt;stroke-linejoin:miter;stroke-opacity:1;stroke-miterlimit:4;stroke-dasharray:none"
       d="m 186.95975,250.45275 422.45981,0"
       id="path7164"
       inkscape:connector-curvature="0" />
    <path
       inkscape:connector-curvature="0"
       id="path7166"
       d="m 187.05599,286.32661 0,-34.26013"
       style="fill:none;fill-rule:evenodd;stroke:#000000;stroke-width:1.875;stroke-linecap:butt;stroke-linejoin:miter;stroke-opacity:1;stroke-miterlimit:4;stroke-dasharray:none" />
    <path
       style="fill:none;fill-rule:evenodd;stroke:#000000;stroke-width:1.5;stroke-linecap:butt;stroke-linejoin:miter;stroke-opacity:1;stroke-miterlimit:4;stroke-dasharray:none"
       d="m 538.63941,264.83421 c -66.86558,39.93361 -66.86558,39.93361 -66.86558,39.93361"
       id="path7168"
       inkscape:connector-curvature="0" />
    <path
       sodipodi:nodetypes="cc"
       inkscape:connector-curvature="0"
       id="path7170"
       d="m 128.08838,308.00842 40.72647,0"
       style="fill:none;fill-rule:evenodd;stroke:#000000;stroke-width:1.63507974px;stroke-linecap:butt;stroke-linejoin:miter;stroke-opacity:1" />
    <path
       style="fill:none;fill-rule:evenodd;stroke:#000000;stroke-width:1.63507974px;stroke-linecap:butt;stroke-linejoin:miter;stroke-opacity:1"
       d="m 241.03769,374.98994 40.72647,0"
       id="path7172"
       inkscape:connector-curvature="0"
       sodipodi:nodetypes="cc" />
  </g>
</svg>
